<?xml version="1.0" standalone="no"?>
<!DOCTYPE svg PUBLIC "-//W3C//DTD SVG 1.1//EN" "http://www.w3.org/Graphics/SVG/1.1/DTD/svg11.dtd" >
<svg>
<metadata>
Created by FontForge 20120731 at Sun Sep 17 07:31:00 2017
 By www-data
MARSNEV c2017
</metadata>
<defs>
<font id="LemonMilk" horiz-adv-x="1112" >
  <font-face 
    font-family="Lemon/Milk"
    font-weight="400"
    font-stretch="normal"
    units-per-em="2048"
    panose-1="2 11 6 3 5 3 2 2 2 4"
    ascent="1638"
    descent="-410"
    x-height="1612"
    cap-height="1612"
    bbox="0 -538.001 2310 2226"
    underline-thickness="0"
    underline-position="0"
    stemh="327"
    stemv="328"
    unicode-range="U+0020-20AC"
  />
    <missing-glyph />
    <glyph glyph-name="space" unicode=" " horiz-adv-x="600" 
 />
    <glyph glyph-name="exclam" unicode="!" horiz-adv-x="594" 
d="M296.999 -51c-113.754 0 -206.999 92.2227 -206.999 206c0 112.999 93.7861 203.001 206.999 203.001c112.37 0 207.001 -94.6338 207.001 -207.001c0 -113.363 -94.0928 -202 -207.001 -202zM161 467c-12.0723 401.058 -35.4277 750.305 -53 1145l374 -0.000976562
l-51 -1145h-270z" />
    <glyph glyph-name="quotedbl" unicode="&#x22;" horiz-adv-x="807" 
d="M40 1653h325l-42 -525h-242zM442 1653h325l-42 -525h-242z" />
    <glyph glyph-name="numbersign" unicode="#" horiz-adv-x="1354" 
d="M50 309l29 230h231l40 309h-230l30 230h231l61 461h231l-61 -461h231l61 461h231l-61 -461h230l-29 -230h-231l-41 -309h231l-30 -230h-230l-42 -309h-231l41 309h-231l-41 -309h-231l41 309h-230zM813 848h-231l-40 -309h230z" />
    <glyph glyph-name="dollar" unicode="$" horiz-adv-x="1072" 
d="M701 483c0 87.5625 -73.7998 161.999 -162 161.999l-1.99805 1.00098c-134.667 0 -249.334 47.333 -344.001 142c-95.333 95.333 -143 210 -143 344c0 238.343 171.91 418.377 366.999 469.001v167h243v-167c192.97 -51.043 361.999 -230.785 361.999 -469h-323
c0 86.5889 -73.5332 162.999 -162 162.999c-89.0439 0 -163 -77.6602 -163 -162.999c0 -86.6309 74.5078 -164 163 -164c132.667 0 247 -47.333 343 -142c94.667 -94.667 142 -209 142 -343c0 -240.023 -168.039 -422.945 -361.999 -473v-165h-243v165
c-196.342 49.707 -365 232.683 -365 472.999h324c0 -88.4053 74.1494 -161.999 163 -161.999c88.5371 0 162 72.0127 162 161.999z" />
    <glyph glyph-name="percent" unicode="%" horiz-adv-x="1552" 
d="M69.999 1289c0 177.187 148.861 323.001 324.001 323.001c173.077 0 322.999 -149.929 322.999 -323c0 -174.155 -147.605 -324 -323 -324c-177.464 0 -324 145.729 -324 323.999zM1119 531c-113.333 0 -170 -56.333 -170 -169s56.667 -169 170 -169
c112.667 0 169 56.333 169 169s-56.333 169 -169 169zM756.998 362c0 198.506 165.395 363 363.001 363c98.667 0 183.667 -36 255 -108c71.333 -70 107 -155 107 -255c0 -196.595 -164.604 -361.999 -362 -361.999c-199.213 0 -363.001 163.805 -363.001 361.999z
M1089 1613h240l-1018 -1613h-241zM513.998 1290c1.1875 64.1172 -59.6572 121.723 -118.999 123c-27.333 0 -55 -11 -83 -33c-53.3809 -41.9424 -52.1719 -136.609 -2 -180c24.667 -21.333 52.667 -32 84 -32c64.9941 0 117.564 56.2451 119.999 122z" />
    <glyph glyph-name="ampersand" unicode="&#x26;" horiz-adv-x="1551" 
d="M790.001 1199c-12.5586 55.2539 -60.8906 102 -126.001 102c-71.333 0 -113 -32 -125 -96c-3.33301 -17.333 8 -51.166 34 -101.499c57.3975 -111.115 47.583 -97.7334 120 -194.999c59.7988 -80.3184 130.742 -145.312 211.5 -232.501
c37.667 -40.667 67.167 -70.334 88.5 -89.001c14.1113 67.4209 12.4229 134.524 16 217.999l303 4.00293c-4.13965 -165.587 -13.3828 -297.996 -67 -417.002c57.7324 -36.3506 149.574 -100.033 235.999 -97.002l-1 -300c-157.351 0 -275.758 70.2549 -369.499 126.501
c-18.333 11 -34.5 22.833 -48.5 35.5c-64.1357 -73.8525 -134.486 -114.614 -249.999 -143.999c-76 -19.333 -144.667 -29 -206 -29c-150 0 -277 50.667 -381 152c-103.333 100 -155 222 -155 366c2 93.333 25.667 169 71 227s93 111 143 159
c4.66699 4.66699 13.667 12 27 22c-46.2275 62.7373 -100.97 196.98 -104 297c0 129.094 57.3691 210.37 123 276.001c63.2109 63.2109 206.94 146 334 146c228.606 0 404.979 -169.021 448 -362.001zM607 301.004c61.2412 0 181.622 35.4316 206 72v-1
c-18.667 16 -63.5 56 -134.5 120s-128.833 133 -173.5 207c-29.333 -21.333 -58.333 -46.333 -87 -75s-42 -71 -40 -127c0 -59.5156 38.7363 -120.042 71 -150c31.333 -30.667 84 -46 158 -46z" />
    <glyph glyph-name="quotesingle" unicode="'" horiz-adv-x="405" 
d="M40 1653h325l-42 -525h-242z" />
    <glyph glyph-name="parenleft" unicode="(" horiz-adv-x="744" 
d="M654 -45l-56.001 -262.999c-141.333 28 -261.666 148.333 -360.999 361c-98 212.667 -147 463.667 -147 753s49 540.666 147 753.999c98.667 212.667 219 333 361 361l56 -263c-72 0 -132.667 -83.333 -182 -250c-50 -167.333 -75 -368 -75 -602
c0 -233.333 25 -434 75 -602c50 -166 110.667 -249 182 -249z" />
    <glyph glyph-name="parenright" unicode=")" horiz-adv-x="743" 
d="M90 -45c70 0 130.667 82.998 182 248.998c50.667 166.667 76 367.334 76 602.001c0 235.333 -25.333 436 -76 602c-51.333 166.667 -112 250 -182 250l56 263c142 -28.667 262 -149 360 -361c98 -213.333 147 -464.666 147 -753.999s-49 -540.333 -147 -753
c-98.667 -212 -218.667 -332.333 -360 -361z" />
    <glyph glyph-name="asterisk" unicode="*" horiz-adv-x="786" 
d="M286 1693h214l-18 -205l151 114l113 -167l-221 -116l221 -117l-113 -166l-151 114l18 -205h-214l18 205l-151 -114l-113 166l222 117l-222 116l113 167l151 -114z" />
    <glyph glyph-name="plus" unicode="+" horiz-adv-x="1031" 
d="M70 544v283h304v405h283v-405h304v-283h-304v-405h-283v405h-304z" />
    <glyph glyph-name="comma" unicode="," horiz-adv-x="593" 
d="M80 146c0 117.383 96.9795 215.001 214.999 215.001l-0.999023 1c116.214 0 219.001 -103.816 219.001 -220c0 -126.003 -45.9951 -209.697 -110.5 -282c-30.333 -34 -75.833 -62 -136.5 -84c-32.3721 -9.71191 -134.211 5.79004 -145.999 21.999
c-8.66699 12.667 10.166 31.5 56.499 56.5s63.166 58.833 50.499 101.5c-77.4404 25.8135 -147 89.8604 -147 190z" />
    <glyph glyph-name="hyphen" unicode="-" horiz-adv-x="930" 
d="M70 544v283h790v-283h-790z" />
    <glyph glyph-name="period" unicode="." horiz-adv-x="594" 
d="M296.999 -51c-113.754 0 -206.999 92.2227 -206.999 206c0 112.901 93.7812 207.001 206.999 207.001c112.37 0 207.001 -94.6338 207.001 -207.001c0 -113.252 -94.0986 -206 -207.001 -206z" />
    <glyph glyph-name="slash" unicode="/" horiz-adv-x="977" 
d="M693 1818h284l-694 -2023h-283z" />
    <glyph glyph-name="zero" unicode="0" horiz-adv-x="1356" 
d="M50 806.999c0 432.04 231.337 814.001 628 814.001c192 0 345.667 -81.333 461 -244c111.333 -154.667 167 -344.667 167 -570c0 -226.667 -55.667 -417.334 -167 -572.001c-116 -162 -269.667 -243 -461 -243c-398.065 0 -628 381.764 -628 815zM876 1190
c-51.333 70 -117.666 105.002 -198.999 105.002c-80.667 0 -146.667 -35 -198 -105c-70.667 -100.667 -106 -228.334 -106 -383.001c0 -156.667 35.333 -284.334 106 -383.001c51.333 -70 117.333 -105 198 -105c81.333 0 147.666 35 198.999 105c70 98 105 225.667 105 383
c0 156 -35 283.667 -105 383z" />
    <glyph glyph-name="one" unicode="1" horiz-adv-x="637" 
d="M50 1481l487 138v-1619h-324v1191l-163 -48v338z" />
    <glyph glyph-name="two" unicode="2" horiz-adv-x="1257" 
d="M631 1297c-137.418 0 -251 -112.965 -251 -250.001h-324c0 158.667 56 294 168 406c112.667 112 248.667 168 408 168c158.667 0 294 -56 406 -168c112.667 -112.667 169 -248 169 -406c0 -96 -26 -190.333 -78 -283s-117 -180.667 -195 -264
c-60.4707 -63.1572 -113.456 -121.896 -182 -177h448v-323h-1150l55 184c179.81 126.389 380.677 301.654 527 460.501c74 80.333 134.167 156 180.5 227s69.5 129.5 69.5 175.5c0 138.103 -114.046 250 -251 250z" />
    <glyph glyph-name="three" unicode="3" horiz-adv-x="1164" 
d="M573.999 330.001c114.219 0 212.999 84.6357 212.999 198.999c0 78 -33.667 147.5 -101 208.5s-164.333 94.5 -291 100.5l68 134c84.667 16 146.334 43.833 185.001 83.5s58 83.5 58 131.5l-3.00195 -1.99707c0 69.9766 -58.5742 130.001 -130 130.001
c-66.0537 0 -116.726 -47.7744 -126.999 -103.001l-322 69c42.1201 192.014 220.609 362 449.001 362c125.333 0 233.333 -44.667 324 -134c89.333 -90.667 134 -199 134 -325c0 -102.667 -29.667 -194 -89 -274c5.33301 -4 9 -7 11 -9c107.333 -103.333 161 -228 161 -374
c0 -146.667 -53.667 -271.334 -161 -374.001c-104.667 -102 -231.334 -153 -380.001 -153c-122.667 0 -232.667 36.667 -330 110c-99.333 75.333 -163.666 171.666 -192.999 288.999l318 81c18.0322 -81.1475 105.631 -150 206 -150z" />
    <glyph glyph-name="four" unicode="4" horiz-adv-x="1416" 
d="M531 1619l350 -2l-345 -948h345v627h323v-627h162v-323h-162v-346h-323v346h-831z" />
    <glyph glyph-name="five" unicode="5" horiz-adv-x="1229" 
d="M590.001 323c136.073 0 252 104.915 252 240c0 66 -24.667 123 -74 171c-43.2666 42.0967 -81.5078 75 -159.001 75v0.999023c-76.667 0 -134.167 -7.66699 -172.5 -23s-89.166 -50.666 -152.499 -105.999l-180 93l82 838h861v-322h-592l-18 -190
c67.5088 20.666 86.8428 23 171.999 23c146.667 0 278.334 -55.167 395.001 -165.5s175 -241.5 175 -393.5c0 -156.667 -57.667 -289.667 -173 -399c-115.333 -110 -254 -165 -416 -165c-254.276 0 -459.65 157.387 -540 340l322 103c50 -80 122.667 -120 218 -120z" />
    <glyph glyph-name="six" unicode="6" horiz-adv-x="1234" 
d="M619 316c133.444 0 243.999 111.379 243.999 243c0 131.714 -110.029 244 -243.999 244l-1.00098 -0.999023c-134.129 0 -242.999 -111.021 -242.999 -244.001c0 -131.771 109.309 -242 244 -242zM567.999 1612l369 -2l-280 -487
c146.667 -12.667 271.334 -72.334 374.001 -179.001c102 -109.333 153 -238 153 -386c0 -157.333 -55.667 -290.666 -167 -399.999c-110.667 -109.333 -244.334 -164 -401.001 -164c-157.333 0 -290.666 54.667 -399.999 164c-110.667 109.333 -166 242.666 -166 399.999
c0 96.415 25.5195 189.423 69.5 272.501c8.02246 15.1533 22.2744 44.6621 29.499 55.5z" />
    <glyph glyph-name="seven" unicode="7" horiz-adv-x="1202" 
d="M50 1612h1102l-511 -1618h-340l405 1302h-656v316z" />
    <glyph glyph-name="eight" unicode="8" horiz-adv-x="1153" 
d="M456 1173c0 -66.3174 57.5312 -121 124 -121l-2 -1c65.4648 0 123 55.376 123 122c0 65.2656 -57.8877 121 -122 121c-65.6523 0 -123 -55.2031 -123 -121zM937 909l-1 0.000976562c111.333 -104.667 167 -233.334 167 -386.001c0 -145.333 -51.333 -269.333 -154 -372
c-102 -102 -226 -153 -372 -153s-270 51 -372 153c-103.333 102 -155 226 -155 372c0 152 56 280.667 168 386c-57.333 78 -86 165.333 -86 262c0 122.667 43.667 227.334 131 314.001c86.667 86.667 191.667 130 315 130c122 0 227 -43.333 315 -130
c86.667 -86.667 130 -191.334 130 -314.001c0 -96.667 -28.667 -184 -86 -262zM576.001 318.001c110.91 0 205 92.7529 205 203.999c0 108.484 -94.6436 206.001 -204.001 206.001l-2.99805 -3c-111.314 0 -202.001 -94.8125 -202.001 -205
c0 -110.389 90.7842 -202 204 -202z" />
    <glyph glyph-name="nine" unicode="9" horiz-adv-x="1234" 
d="M373.001 1054c0 -131.328 110.145 -242.537 243 -243c133.444 0 243.999 110.658 243.999 243c0 132.187 -111.098 244 -243.999 244c-133.795 0 -243 -111.999 -243 -244zM667.001 1l-371.001 -1.00098l280 488c-148 10.667 -272.333 70.334 -373 179.001
c-102 108.667 -153 237.334 -153 386.001c0 155.333 55.333 289 166 401c109.333 110.667 242.666 166 399.999 166c156.667 0 290.334 -55.333 401.001 -166c111.333 -111.333 167 -245 167 -401c0 -90.667 -21 -177 -63 -259
c-10.0547 -17.876 -25.3457 -50.5771 -33.999 -65.001z" />
    <glyph glyph-name="colon" unicode=":" horiz-adv-x="574" 
d="M286.999 0.000976562c-113.754 0 -206.999 93.248 -206.999 206.999c0 112.901 93.7812 207.001 206.999 207.001c112.37 0 207.001 -94.6338 207.001 -207.001c0 -113.224 -94.0996 -206.999 -207.001 -206.999zM286.999 914c-113.754 0 -206.999 92.2227 -206.999 206
c0 113.754 93.248 206.999 206.999 206.999c112.901 0 207.001 -93.7812 207.001 -206.999c0 -113.252 -94.0986 -206 -207.001 -206z" />
    <glyph glyph-name="semicolon" unicode=";" horiz-adv-x="593" 
d="M288.999 914c-113.754 0 -206.999 92.2227 -206.999 206c0 113.754 93.248 206.999 206.999 206.999c112.901 0 207.001 -93.7812 207.001 -206.999c0 -113.252 -94.0986 -206 -207.001 -206zM80 202c0 118.233 97.4746 215.001 215.999 215.001l-1.99902 1.00098
c116.747 0 219.001 -102.969 219.001 -220c0 -125.25 -45.8887 -209.787 -110.5 -281.5c-30.333 -33.667 -75.833 -61.5 -136.5 -83.5c-32.3721 -9.71191 -134.211 5.79004 -145.999 21.999c-8.66699 12.667 10.166 31.5 56.499 56.5s63.166 58.5 50.499 100.5
c-77.3691 24.5615 -147 91.1826 -147 189.999z" />
    <glyph glyph-name="less" unicode="&#x3c;" horiz-adv-x="1209" 
d="M1169 1300v-317l-578 -333l578 -332v-318l-1129 650z" />
    <glyph glyph-name="equal" unicode="=" horiz-adv-x="970" 
d="M80 301v283h810v-283h-810zM80 786v284h810v-284h-810z" />
    <glyph glyph-name="greater" unicode="&#x3e;" horiz-adv-x="1209" 
d="M40 1300l1129 -650l-1129 -650v318l578 332l-578 333v317z" />
    <glyph glyph-name="question" unicode="?" 
d="M546.42 -51c-113.754 0 -206.999 92.2227 -206.999 206c0 112.999 93.7861 203.001 206.999 203.001c112.37 0 207.001 -94.6338 207.001 -207.001c0 -113.363 -94.0928 -202 -207.001 -202zM554.347 1308.57c-94.5967 0.558594 -171.834 -81.0459 -172.2 -172.2h-342.3
c-0.283203 142.417 50.1172 263.867 151.2 364.351c101.583 100.851 223.033 151.251 364.35 151.201c142.017 0.0498047 263.467 -50.3506 364.351 -151.201c100.894 -100.926 151.644 -222.376 152.25 -364.35c0.283203 -66.25 -14.7666 -121.55 -45.1504 -165.9
c-32.2832 -46.3164 -67.6328 -88.3164 -106.05 -126c-58.917 -58.9834 -114.567 -116.208 -166.951 -171.675c-52.2832 -55.8662 -68.0332 -134.091 -47.25 -234.674l-345.449 -1.05273v29.3994c0.183594 105.017 17.5088 188.492 51.9756 250.426
c38.2002 68.0664 88.0752 131.591 149.625 190.574c33.7832 32.3506 69.4834 71.2012 107.1 116.552c37.7168 44.6494 56.6172 82.0996 56.7002 112.35c-0.165039 91.1426 -79.0488 172.765 -172.2 172.2z" />
    <glyph glyph-name="at" unicode="@" horiz-adv-x="2158" 
d="M1227 426.998c-34.7334 -50.9414 -113.16 -70.999 -191.999 -70.999c-108.667 0 -205.334 43 -290.001 129c-86 84.667 -129 187.667 -129 309c0 108.667 38.833 209 116.5 301s173.5 138 287.5 138c24 0 57.833 -8.33301 101.5 -25s72.834 -39 87.501 -67v93h273l2 -616
c0 -62 14.167 -104.167 42.5 -126.5s54.5 -30.166 78.5 -23.499c70 18.667 119.667 67.834 149 147.501s44 147.5 44 203.5c0 210 -66 380.667 -198 512c-124.028 122.858 -295.239 194 -523 194l3.99902 -1.00098c-208 0 -380.333 -67.667 -517 -203s-205 -308 -205 -518
s68.667 -382 206 -516c135.333 -135.333 307.333 -203 516 -203c114.553 0 242.799 3.06836 325 40l110 -285c-127.278 -59.9688 -259.262 -60.001 -434.999 -60.001c-294.667 0 -540.334 96.667 -737.001 290c-196 194.667 -294 439 -294 733
c0 292.667 97.667 537.334 293 734.001c200 199.333 445.667 299 737 299c326.215 0 562.58 -108.912 741 -285.001c175.515 -176.686 287 -409.302 287 -734c0 -168 -49.167 -319.667 -147.5 -455s-240.833 -196.333 -427.5 -183
c-159.853 10.8643 -259.783 109.193 -306 248.999zM1210 792c0 94.5918 -63.7705 155 -154.001 155l-2 1c-83.2969 0 -153 -70.7324 -153 -154c0 -86.8418 67.4326 -156 154 -156c94.0732 0 152.575 55.752 155.001 154z" />
    <glyph glyph-name="A" unicode="A" horiz-adv-x="1551" 
d="M40 0l735 1645l736 -1645h-351l-109 245h-552l-109 -245h-350zM627 531h296l-147 341z" />
    <glyph glyph-name="B" unicode="B" horiz-adv-x="1242" 
d="M998 1171c0 -77.292 -37.166 -169.963 -67 -223.001c39.3779 -19.6885 93.6445 -52.9092 124 -81.999c98 -99.333 147 -218.666 147 -357.999c0 -140 -49 -259.333 -147 -358c-98 -100 -216.667 -150 -356 -150h-599v1612l337.999 -0.000976562h112
c124.667 0 231.334 -44.667 320.001 -134c85.333 -86.667 128 -189 128 -307zM698.999 315.999c105.154 0 187 86.8096 187 191.999c0 107.122 -87.2549 191.351 -187 198c-95.9463 5.25781 -179.006 1 -276 1v-391l64 0.000976562h212zM685.999 1158
c0 74.7158 -60.6484 139 -136 139h-127v-295c28.667 1.33301 69 4.00098 121 8.00098c76.6816 8.6582 142 66.0303 142 147.999z" />
    <glyph glyph-name="C" unicode="C" horiz-adv-x="1477" 
d="M1437 226.999c-132.306 -131.113 -328.558 -237.999 -580 -237.999c-225.333 0.666992 -417.666 80 -576.999 238c-160 160 -240 352.667 -240 578c0 224.667 80 417.667 240 579c160.667 160.667 353 241 577 241l-1 -4.00098c248.923 0 446.797 -110.555 580 -239
l-231 -231c-97.333 96 -213 144 -347 144c-136 0 -251.333 -48 -346 -144c-96 -97.333 -144 -213 -144 -347c0 -135.333 48 -251 144 -347c95.333 -95.333 210.666 -143 345.999 -143c136 0 252 48 348 144z" />
    <glyph glyph-name="D" unicode="D" horiz-adv-x="1374" 
d="M529 1611v1.00195c253.214 0 451.44 -100.597 589 -237.001c144 -144.667 216 -334.834 216 -570.501s-72 -425.167 -216 -568.5c-158.667 -157.333 -355 -236 -589 -236h-429v1611h429zM1011 807.002c0 288.438 -192.655 484 -483 484h-105v-968h108
c290.6 0 480 192.918 480 484z" />
    <glyph glyph-name="E" unicode="E" 
d="M100 1616h972v-323h-648v-325h486v-323h-486v-325h648v-322h-972v1618z" />
    <glyph glyph-name="F" unicode="F" 
d="M100 1616h972v-323h-648v-325h486v-323h-486v-647h-324v1618z" />
    <glyph glyph-name="G" unicode="G" horiz-adv-x="1713" 
d="M857 1625l1.00098 -3.00098c248.866 0 447.283 -109.655 579 -239l-231 -231c-98 96.667 -213.333 145 -346 145c-135.333 0 -250.666 -48.333 -345.999 -145c-96 -96 -144 -211.667 -144 -347s48 -251 144 -347c94.667 -96 210 -144 346 -144
c209.506 0 371.43 130.207 441.999 282h-460v309h828c23.0566 -301.272 -75.8086 -519.97 -235 -678c-160.667 -159.333 -353.334 -239 -578.001 -239c-226.667 0 -419 79.667 -577 239c-160 158.667 -240 351.334 -240 578.001c0 224.667 80 417.667 240 579
c158.667 160.667 351 241 577 241z" />
    <glyph glyph-name="H" unicode="H" horiz-adv-x="1385" 
d="M100 1612h323v-645h539v645h323v-1612h-323v646h-539v-646h-323v1612z" />
    <glyph glyph-name="I" unicode="I" horiz-adv-x="524" 
d="M100 0v1612h324v-1612h-324z" />
    <glyph glyph-name="J" unicode="J" horiz-adv-x="1156" 
d="M411 307c178.249 0 320.999 151.104 320.999 325v324l-6 656l324 -0.998047l6 -650v-331c0 -180.667 -63.667 -333.667 -191 -459c-125.333 -122.667 -276 -185.334 -452 -188.001h-11c-136 1.33301 -256.667 38.666 -362 111.999l164 284
c55.251 -46.5684 116.623 -72 200.001 -72h7z" />
    <glyph glyph-name="K" unicode="K" horiz-adv-x="1327" 
d="M100 1612h323v-713l413 713h374l-477 -819l554 -793h-394l-470 676v-676h-323v1612z" />
    <glyph glyph-name="L" unicode="L" 
d="M100 1612h324v-1290h648v-322h-972v1612z" />
    <glyph glyph-name="M" unicode="M" horiz-adv-x="1779" 
d="M100 1650l790 -1083l789 1083v-1650h-324v668l-465 -642l-466 642v-668h-324v1650z" />
    <glyph glyph-name="N" unicode="N" horiz-adv-x="1496" 
d="M100 1646l971 -925v895h325v-1649l-972 926v-895h-324v1648z" />
    <glyph glyph-name="O" unicode="O" horiz-adv-x="1715" 
d="M858.001 1625c224.667 0 417.332 -80.333 577.999 -241s241 -353.667 241 -579c0 -226 -80.333 -418.667 -241 -578c-160 -158.667 -352.667 -238 -578 -238c-226 0.666992 -418.667 80 -578 238c-160 160 -240 352.667 -240 578c0 224.667 80 417.667 240 579
c160.667 160.667 353.334 241 578.001 241zM857.999 1298c-136.667 0 -252.333 -48.001 -347 -144.001c-96 -97.333 -144 -213 -144 -347c0 -135.333 48 -251 144 -347c95.333 -95.333 211 -143 347 -143c134 0 249.333 47.667 346 143s145 211 145 347
c0 134.667 -48.333 250.334 -145 347.001c-96 96 -211.333 144 -346 144z" />
    <glyph glyph-name="P" unicode="P" horiz-adv-x="1273" 
d="M100.001 0l-0.000976562 484v1128h566c156.667 0 290 -55 400 -165c111.333 -110.667 167 -244 167 -400c0 -157.333 -55.667 -290 -167 -398c-111.333 -110 -244.666 -165 -399.999 -165h-242v-484h-324zM909 1047c0 131.653 -110.924 244 -243 244h-242v-486l242 -1
c132.618 0 243 111.193 243 243z" />
    <glyph glyph-name="Q" unicode="Q" horiz-adv-x="1769" 
d="M1703 -76c-216.967 14.0732 -371.468 56.0234 -500.001 139c-102.667 -48.667 -218 -73 -346 -73c-227.333 0 -419.666 79.333 -576.999 238c-160 158.667 -240 351 -240 577c0 224.667 80 417.667 240 579c158.667 160.667 351 241 577 241
c225.333 0 418.332 -80.333 578.999 -241c160.667 -162 241 -355 241 -579c0 -199.333 -63.333 -373.333 -190 -522c64.667 -22.667 145.334 -37 242.001 -43zM688.999 774c95.333 -7.33301 181.332 -30.9971 257.999 -70.9971c80.2549 -42.6357 194.972 -134.079 275 -223
c84 92 126 201.333 126 328c0 134.667 -48 250 -144 346c-97.333 96 -213 144 -347 144c-136 0 -251.333 -48 -346 -144c-96 -96 -144 -211.333 -144 -346c0 -136.667 48 -252.334 144 -347.001c94.667 -96 210 -144 346 -144c22.667 0 47.334 1.66699 74.001 5
c-52 47.333 -96 80.666 -132 99.999c-38 19.333 -81 30.666 -129 33.999z" />
    <glyph glyph-name="R" unicode="R" horiz-adv-x="1323" 
d="M100.999 0l-0.999023 1612h526c179.477 0 324.608 -67.7676 422.001 -164c98.1367 -98.1367 155.999 -187.659 155.999 -365.999v-42c0 -108.667 -34 -211 -102 -307c-56.6182 -79.2646 -101.46 -112.984 -193.001 -149l375 -584h-396l-463 713v-713h-324zM657 844.999
c118.071 0 213 104.107 213 226.999c0 58.667 -21.333 110.334 -64 155.001c-42.04 40.8721 -121.862 64 -200 64h-182v-445h125v-1h108z" />
    <glyph glyph-name="S" unicode="S" horiz-adv-x="1107" 
d="M550.691 315.871l-1.4668 1.4668c89.4736 0 188.238 74.3174 188.238 163.791c0 147.168 -197.527 167.702 -309.004 206.328c-196.549 66.9824 -370.118 228.33 -370.118 447.858c0 271.845 220.506 490.885 492.351 490.885
c247.887 0 453.236 -183.838 486.484 -422.924l-321.716 -67.9609c0 88.4961 -74.3174 162.813 -162.813 162.813c-89.9619 0 -164.279 -74.3174 -164.279 -163.791c0 -145.212 183.838 -183.837 295.802 -217.085c203.395 -58.6709 382.831 -213.661 382.831 -438.079
c0 -271.845 -243.975 -491.374 -515.33 -491.374c-249.354 0 -474.75 182.859 -511.42 422.924l321.715 68.4502c0 -89.9639 97.7861 -163.303 188.727 -163.303z" />
    <glyph glyph-name="T" unicode="T" horiz-adv-x="1198" 
d="M40 1612h1118v-321h-396v-1291h-325v1291h-397v321z" />
    <glyph glyph-name="U" unicode="U" horiz-adv-x="1504" 
d="M752 313c175.455 0 326 149.304 326 324v975h326v-976c0 -180 -63.667 -333.667 -191 -461c-128 -126.667 -281.333 -190 -460 -190c-180.667 0 -334.667 63.333 -462 190c-127.333 127.333 -191 281 -191 461v976h326v-975c0 -175.757 148.85 -324 326 -324z" />
    <glyph glyph-name="V" unicode="V" horiz-adv-x="1537" 
d="M1497 1612l-730 -1648l-727 1648h343l383 -883l384 883h347z" />
    <glyph glyph-name="W" unicode="W" horiz-adv-x="1971" 
d="M40 1612h349l298 -763l299 763l298 -763l297 763h350l-647 -1648l-302 802l-295 -802z" />
    <glyph glyph-name="X" unicode="X" horiz-adv-x="1375" 
d="M40 1612h372l275 -479l276 479h372l-462 -805l462 -807h-372l-276 481l-275 -481l-372 1l460 806z" />
    <glyph glyph-name="Y" unicode="Y" horiz-adv-x="1401" 
d="M40 1612h366l294 -559l294 559h367l-500 -921v-691h-322v691z" />
    <glyph glyph-name="Z" unicode="Z" horiz-adv-x="1214" 
d="M40 1612h1134l-620 -1290h620v-322h-1134l620 1291h-620v321z" />
    <glyph glyph-name="bracketleft" unicode="[" horiz-adv-x="875" 
d="M100 806.001c0 185.661 151.997 338.999 338 338.999c184.326 0 337 -154.411 337 -338.999c0 -185.479 -152.142 -338 -337 -338c-186.541 0 -338 151.464 -338 338z" />
    <glyph glyph-name="backslash" unicode="\" horiz-adv-x="936" 
d="M243 1818l693 -2023h-243l-693 2023h243z" />
    <glyph glyph-name="bracketright" unicode="]" horiz-adv-x="875" 
d="M100 806.001c0 185.661 151.997 338.999 338 338.999c184.326 0 337 -154.411 337 -338.999c0 -185.479 -152.142 -338 -337 -338c-186.541 0 -338 151.464 -338 338z" />
    <glyph glyph-name="asciicircum" unicode="^" horiz-adv-x="988" 
d="M40 848l453 777l455 -777h-281l-174 295l-173 -295h-280z" />
    <glyph glyph-name="underscore" unicode="_" horiz-adv-x="1209" 
d="M0 -110v221h1209v-221h-1209z" />
    <glyph glyph-name="grave" unicode="`" horiz-adv-x="501" 
d="M10 1597l273 136l208 -565l-168 -81z" />
    <glyph glyph-name="a" unicode="a" horiz-adv-x="1551" 
d="M40 0l735 1645l736 -1645h-351l-109 245h-552l-109 -245h-350zM627 531h296l-147 341z" />
    <glyph glyph-name="b" unicode="b" horiz-adv-x="1242" 
d="M998 1171c0 -77.292 -37.166 -169.962 -67 -223c39.3779 -19.6885 93.6445 -52.9102 124 -82c98 -99.333 147 -218.666 147 -357.999c0 -140 -49 -259.333 -147 -358c-98 -100 -216.667 -150 -356 -150h-599v1612l337.999 -0.000976562h112
c124.667 0 231.334 -44.667 320.001 -134c85.333 -86.667 128 -189 128 -307zM698.999 316c105.154 0 187 86.8105 187 192c0 107.122 -87.2549 191.35 -187 197.999c-95.9463 5.25781 -179.006 1 -276 1v-391l64 0.000976562h212zM685.999 1158
c0 74.7158 -60.6484 139 -136 139h-127v-295c28.667 1.33301 69 4.00098 121 8.00098c76.6816 8.6582 142 66.0303 142 147.999z" />
    <glyph glyph-name="c" unicode="c" horiz-adv-x="1477" 
d="M1437 226.999c-132.306 -131.113 -328.558 -237.999 -580 -237.999c-225.333 0.666992 -417.666 80 -576.999 238c-160 160 -240 352.667 -240 578c0 224.667 80 417.667 240 579c160.667 160.667 353 241 577 241l-1 -4.00098c248.923 0 446.797 -110.555 580 -239
l-231 -231c-97.333 96 -213 144 -347 144c-136 0 -251.333 -48 -346 -144c-96 -97.333 -144 -213 -144 -347c0 -135.333 48 -251 144 -347c95.333 -95.333 210.666 -143 345.999 -143c136 0 252 48 348 144z" />
    <glyph glyph-name="d" unicode="d" horiz-adv-x="1374" 
d="M529 1611v1.00195c253.214 0 451.44 -100.597 589 -237.001c144 -144.667 216 -334.834 216 -570.501s-72 -425.167 -216 -568.5c-158.667 -157.333 -355 -236 -589 -236h-429v1611h429zM1011 807.002c0 288.438 -192.655 484 -483 484h-105v-968h108
c290.6 0 480 192.918 480 484z" />
    <glyph glyph-name="e" unicode="e" 
d="M100 1616h972v-323h-648v-325h486v-323h-486v-325h648v-322h-972v1618z" />
    <glyph glyph-name="f" unicode="f" 
d="M100 1616h972v-323h-648v-325h486v-323h-486v-647h-324v1618z" />
    <glyph glyph-name="g" unicode="g" horiz-adv-x="1713" 
d="M857 1625l1 -3.00098c248.866 0 447.284 -109.655 579.001 -239l-231 -231c-98 96.667 -213.333 145 -346 145c-135.333 0 -250.666 -48.333 -345.999 -145c-96 -96 -144 -211.667 -144 -347s48 -251 144 -347c94.667 -96 210 -144 346 -144
c209.506 0 371.43 130.207 441.999 282h-460v309h828c23.0566 -301.272 -75.8086 -519.97 -235 -678c-160.667 -159.333 -353.334 -239 -578.001 -239c-226.667 0 -419 79.667 -577 239c-160 158.667 -240 351.334 -240 578.001c0 224.667 80 417.667 240 579
c158.667 160.667 351 241 577 241z" />
    <glyph glyph-name="h" unicode="h" horiz-adv-x="1385" 
d="M100 1612h323v-645h539v645h323v-1612h-323v646h-539v-646h-323v1612z" />
    <glyph glyph-name="i" unicode="i" horiz-adv-x="524" 
d="M100 0v1612h324v-1612h-324z" />
    <glyph glyph-name="j" unicode="j" horiz-adv-x="1156" 
d="M411 307c178.249 0 321 151.104 321 325v324l-6 656l324 -0.998047l6 -650v-331c0 -180.667 -63.667 -333.667 -191 -459c-125.333 -122.667 -276 -185.334 -452 -188.001h-11c-136 1.33301 -256.667 38.666 -362 111.999l164 284c55.251 -46.5684 116.622 -72 200 -72h7
z" />
    <glyph glyph-name="k" unicode="k" horiz-adv-x="1327" 
d="M100 1612h323v-713l413 713h374l-477 -819l554 -793h-394l-470 676v-676h-323v1612z" />
    <glyph glyph-name="l" unicode="l" 
d="M100 1612h324v-1290h648v-322h-972v1612z" />
    <glyph glyph-name="m" unicode="m" horiz-adv-x="1779" 
d="M100 1650l790 -1083l789 1083v-1650h-324v668l-465 -642l-466 642v-668h-324v1650z" />
    <glyph glyph-name="n" unicode="n" horiz-adv-x="1496" 
d="M100 1646l971 -925v895h325v-1649l-972 926v-895h-324v1648z" />
    <glyph glyph-name="o" unicode="o" horiz-adv-x="1715" 
d="M858.001 1625c224.667 0 417.332 -80.333 577.999 -241s241 -353.667 241 -579c0 -226 -80.333 -418.667 -241 -578c-160 -158.667 -352.667 -238 -578 -238c-226 0.666992 -418.667 80 -578 238c-160 160 -240 352.667 -240 578c0 224.667 80 417.667 240 579
c160.667 160.667 353.334 241 578.001 241zM857.999 1298c-136.667 0 -252.333 -48.001 -347 -144.001c-96 -97.333 -144 -213 -144 -347c0 -135.333 48 -251 144 -347c95.333 -95.333 211 -143 347 -143c134 0 249.333 47.667 346 143s145 211 145 347
c0 134.667 -48.333 250.334 -145 347.001c-96 96 -211.333 144 -346 144z" />
    <glyph glyph-name="p" unicode="p" horiz-adv-x="1273" 
d="M100.001 0l-0.000976562 484v1128h566c156.667 0 290 -55 400 -165c111.333 -110.667 167 -244 167 -400c0 -157.333 -55.667 -290 -167 -398c-111.333 -110 -244.666 -165 -399.999 -165h-242v-484h-324zM909 1047c0 131.653 -110.924 244 -243 244h-242v-486l242 -1
c132.618 0 243 111.193 243 243z" />
    <glyph glyph-name="q" unicode="q" horiz-adv-x="1769" 
d="M1703 -76c-216.967 14.0732 -371.468 56.0234 -500.001 139c-102.667 -48.667 -218 -73 -346 -73c-227.333 0 -419.666 79.333 -576.999 238c-160 158.667 -240 351 -240 577c0 224.667 80 417.667 240 579c158.667 160.667 351 241 577 241
c225.333 0 418.332 -80.333 578.999 -241c160.667 -162 241 -355 241 -579c0 -199.333 -63.333 -373.333 -190 -522c64.667 -22.667 145.334 -37 242.001 -43zM688.999 774c95.333 -7.33301 181.332 -30.9971 257.999 -70.9971c80.2549 -42.6357 194.972 -134.079 275 -223
c84 92 126 201.333 126 328c0 134.667 -48 250 -144 346c-97.333 96 -213 144 -347 144c-136 0 -251.333 -48 -346 -144c-96 -96 -144 -211.333 -144 -346c0 -136.667 48 -252.334 144 -347.001c94.667 -96 210 -144 346 -144c22.667 0 47.334 1.66699 74.001 5
c-52 47.333 -96 80.666 -132 99.999c-38 19.333 -81 30.666 -129 33.999z" />
    <glyph glyph-name="r" unicode="r" horiz-adv-x="1323" 
d="M100.999 0l-0.999023 1612h526c179.477 0 324.607 -67.7676 422 -164c98.1367 -98.1367 155.999 -187.66 155.999 -366v-42c0 -108.667 -34 -211 -102 -307c-56.6182 -79.2646 -101.459 -112.984 -193 -149l375 -584h-396l-463 713v-713h-324zM657 845
c118.071 0 213 104.107 213 226.999c0 58.667 -21.333 110.334 -64 155.001c-42.04 40.8721 -121.862 64 -200 64h-182v-445h125v-1h108z" />
    <glyph glyph-name="s" unicode="s" horiz-adv-x="1107" 
d="M550.691 315.871l-1.4668 1.4668c89.4736 0 188.238 74.3174 188.238 163.791c0 147.168 -197.527 167.702 -309.004 206.328c-196.549 66.9824 -370.118 228.33 -370.118 447.858c0 271.845 220.506 490.885 492.351 490.885
c247.887 0 453.236 -183.838 486.484 -422.924l-321.716 -67.9609c0 88.4961 -74.3174 162.813 -162.813 162.813c-89.9619 0 -164.279 -74.3174 -164.279 -163.791c0 -145.212 183.838 -183.837 295.802 -217.085c203.395 -58.6709 382.831 -213.661 382.831 -438.079
c0 -271.845 -243.975 -491.374 -515.33 -491.374c-249.354 0 -474.75 182.859 -511.42 422.924l321.715 68.4502c0 -89.9639 97.7861 -163.303 188.727 -163.303z" />
    <glyph glyph-name="t" unicode="t" horiz-adv-x="1198" 
d="M40 1612h1118v-321h-396v-1291h-325v1291h-397v321z" />
    <glyph glyph-name="u" unicode="u" horiz-adv-x="1504" 
d="M752 313c175.455 0 326 149.304 326 324v975h326v-976c0 -180 -63.667 -333.667 -191 -461c-128 -126.667 -281.333 -190 -460 -190c-180.667 0 -334.667 63.333 -462 190c-127.333 127.333 -191 281 -191 461v976h326v-975c0 -175.757 148.85 -324 326 -324z" />
    <glyph glyph-name="v" unicode="v" horiz-adv-x="1537" 
d="M1497 1612l-730 -1648l-727 1648h343l383 -883l384 883h347z" />
    <glyph glyph-name="w" unicode="w" horiz-adv-x="1971" 
d="M40 1612h349l298 -763l299 763l298 -763l297 763h350l-647 -1648l-302 802l-295 -802z" />
    <glyph glyph-name="x" unicode="x" horiz-adv-x="1375" 
d="M40 1612h372l275 -479l276 479h372l-462 -805l462 -807h-372l-276 481l-275 -481l-372 1l460 806z" />
    <glyph glyph-name="y" unicode="y" horiz-adv-x="1401" 
d="M40 1612h366l294 -559l294 559h367l-500 -921v-691h-322v691z" />
    <glyph glyph-name="z" unicode="z" horiz-adv-x="1214" 
d="M40 1612h1134l-620 -1290h620v-322h-1134l620 1291h-620v321z" />
    <glyph glyph-name="braceleft" unicode="{" horiz-adv-x="1003" 
d="M100.001 806c0 220.868 181.11 403 401.999 403c110 0 204.333 -39.333 283 -118s118 -173.667 118 -285s-39.333 -206.166 -118 -284.499s-173 -117.5 -283 -117.5c-220.895 0 -401.999 181.111 -401.999 401.999zM666.999 805c0 90.709 -74.5596 167 -164.999 167
c-91.2705 0 -166 -75.7578 -166 -167c0 -91.2705 74.7324 -166 166 -166c90.4414 0 164.999 75.2676 164.999 166z" />
    <glyph glyph-name="bar" unicode="|" horiz-adv-x="593" 
d="M200 1818h193v-2023h-193v2023z" />
    <glyph glyph-name="braceright" unicode="}" horiz-adv-x="1003" 
d="M100.001 806c0 220.868 181.11 403 401.999 403c110 0 204.333 -39.333 283 -118s118 -173.667 118 -285s-39.333 -206.166 -118 -284.499s-173 -117.5 -283 -117.5c-220.895 0 -401.999 181.111 -401.999 401.999zM666.999 805c0 90.709 -74.5596 167 -164.999 167
c-91.2705 0 -166 -75.7578 -166 -167c0 -91.2705 74.7324 -166 166 -166c90.4414 0 164.999 75.2676 164.999 166z" />
    <glyph glyph-name="asciitilde" unicode="~" horiz-adv-x="1240" 
d="M1177 702l2.00098 -1.00098c-66.667 -83.333 -136.667 -120.166 -210 -110.499s-190 43.5 -350 101.5c-170 60 -283.833 80 -341.5 60s-127.834 -72 -210.501 -156l-7 271c72 78 142.333 128 211 150s197 -6.66699 385 -86c172 -74 286.333 -99.5 343 -76.5
s117 69.833 181 140.5z" />
    <glyph glyph-name="uni007F" horiz-adv-x="1992" 
 />
    <glyph glyph-name="exclamdown" unicode="&#xa1;" horiz-adv-x="594" 
d="M296.999 1013c-113.754 0 -206.999 88.1182 -206.999 202c0 113.754 93.248 207 206.999 207c112.37 0 207.001 -89.5029 207.001 -202c0 -114.081 -93.5645 -207 -207.001 -207zM108 -240.999c17.6152 394.297 40.958 743.605 53 1145h270l51 -1145h-374z" />
    <glyph glyph-name="cent" unicode="&#xa2;" horiz-adv-x="1270" 
d="M1230 310c-100.11 -100.11 -239.448 -181.459 -410 -201.001v-316h-211v323c-137.333 23.333 -258.666 88 -363.999 194c-136.667 135.333 -205 300 -205 494c0 191.333 68.333 355 205 491c104.667 106 226 171 364 195v330l211 1.00195v-325
c169.699 -19.6484 311.604 -103.745 409.999 -199l-198 -197c-84 82 -183 123 -297 123c-116 0 -214.333 -41 -295 -123c-80.667 -82.667 -121 -181.667 -121 -297c0 -230.902 185.058 -418.001 416 -418.001c116.667 0 215.667 41 297 123z" />
    <glyph glyph-name="sterling" unicode="&#xa3;" horiz-adv-x="1148" 
d="M791.001 1296c-179.69 0 -322.001 -151.379 -322.001 -323.999v-115h338v-181h-338v-236h-2v-119h641v-321h-1046v321h84v355h-106v181h106v24l-0.999023 91.999c0 178 63.333 330.333 190 457c124.667 123.333 275 186.333 451 189h12
c67.333 -0.666992 115.5 -6 144.5 -16s76.5 -27 142.5 -51l-164 -282c-32.667 16 -74 24.667 -124 26h-6z" />
    <glyph glyph-name="currency" unicode="&#xa4;" horiz-adv-x="1159" 
d="M746 805.001c2.09766 142.598 -178.471 222.531 -281.001 120.001c-64.1533 -62.8438 -66.0859 -169.914 -2 -234c63.3428 -64.6631 169.034 -66.9678 234.001 -2.00098c32 32 48.333 70.667 49 116zM362 1144c132.534 86.1465 309.038 84.7754 441.001 -0.999023
l180 177l115.999 -116.002l-179 -177c87.7236 -134.243 86.4746 -313.42 -2.99902 -445l177 -180l-115 -114l-179 180c-135.473 -87.6582 -313.564 -85.9102 -444.001 5l-182 -178l-114 116l182 178c-86.6797 133.355 -81.5244 310.214 5 440.001l-178 181l116 115z" />
    <glyph glyph-name="yen" unicode="&#xa5;" horiz-adv-x="1409" 
d="M60 1612h366l278 -511l278 511h367l-411 -754h398v-199h-471v-108h471v-199h-471v-352h-322v352h-470v199h470v108h-470v199h397z" />
    <glyph glyph-name="brokenbar" unicode="&#xa6;" horiz-adv-x="593" 
d="M200 1818h193v-870h-193v870zM393 663v-868h-193v868h193z" />
    <glyph glyph-name="section" unicode="&#xa7;" horiz-adv-x="1131" 
d="M407 813c10 -92.667 60.8311 -140 152.498 -142s146.834 41.333 165.501 130c-11.333 89.333 -62.666 135.833 -153.999 139.5s-146 -38.833 -164 -127.5zM1051 829.999c0 -150.976 -66.7363 -274.265 -172.002 -368.999
c60.4062 -48.749 120.342 -112.443 151.006 -185.497c11.333 -27 17 -62.5 17 -106.5c0 -132.667 -47.333 -246 -142 -340c-94.667 -94.667 -208.334 -142 -341.001 -142c-134 0 -247.667 47.333 -341 142c-94.667 94.667 -142 208 -142 340h321
c0 -88.6299 72.3721 -161 161 -161l-1 2c67.333 0 118.666 35.833 153.999 107.5s10.666 123.167 -74.001 154.5c-128.368 46.2734 -71.417 25.2471 -198 71c-122.667 41.333 -222.334 114.666 -299.001 219.999c-43.333 59.333 -65 132.666 -65 219.999
c0 144.312 63.5469 271.261 169 365c-55.2139 46.0117 -120.409 118.525 -148.999 190c-10.667 26.667 -16 62 -16 106c0 132 47.333 245.333 142 340c93.333 94.667 207 142 341 142c133.333 0 247 -47.333 341 -142c94.667 -94 142 -207.333 142 -340h-320
c0 85.8848 -75.1436 160 -161 160c-87.2441 0 -161 -73.7578 -161 -161c0 -28.667 5.66699 -48.834 17 -60.501c24.1191 -24.8301 129.049 -87.2715 143.499 -91.501c13.667 -4 49.167 -14.333 106.5 -31c125.333 -36 228.333 -105.667 309 -209
c44.667 -58 67 -131.667 67 -221z" />
    <glyph glyph-name="dieresis" unicode="&#xa8;" horiz-adv-x="1992" 
d="M217 741l262.001 -285.001c22.3008 182.699 44.6387 365.361 67 548l-167 -197l-118 197l-25 -205h-100l62 505l202 -331l284 331c-43.9268 -360.073 -88.1328 -719.867 -133.001 -1079l-263 284l-33 -275h-100zM845.001 960.999h88l-31 104zM794.001 874.999l-1 -4
l-42 -72h-106l287 504l165 -504c33.834 -114.166 70.0566 -225.943 105 -339l150 272h107l-286 -507l-162 507l-26 74c-7.34473 22.9883 -14.5977 46.0684 -22 69h-169zM1133 797.999c14.7402 106.593 28.5459 214.122 42.001 322.001l21 173h161
c106.239 0 169.003 -73.9785 155 -179c-9.38477 -67.0303 -58.7471 -121.953 -121.001 -144.001l90 -172h-121l-103 194l-24 -194h-100zM1266 1055l72 -1.00098c53.1006 0 98.4053 75.8398 58 121.001c-12 13.333 -31.333 20 -58 20h-55
c-5.30469 -47.0283 -10.9902 -93.6768 -17 -140zM1763 1148c1.30371 29.9775 -17.8291 51.002 -45.001 51.002c-44.5713 0 -78.5205 -62.3584 -38.999 -92c23.7881 -17.8418 30.1797 -19.2969 56.999 -26.002c53.5635 -19.4766 110.322 -58.2803 102.999 -136.999
c-10.0781 -78.1084 -84.9375 -149 -169 -149c-80.918 0 -143.844 64.9561 -133 149h101c-5.22559 -28.7363 17.0127 -51 43.999 -51c28.1064 0 52.3027 25.1191 56 51c5.11133 39.6045 -26.8652 40.9365 -53 53.999l0.00195312 4
c-61.0322 20.3467 -133.696 56.1279 -122.998 146c8.71191 77.1543 84.3018 148 169 148c79.2422 0 141.462 -64.1943 131.999 -148h-100zM688.002 734.001h297l-12 -99h-198l-13 -101h149l-12 -99h-149l-12 -100h199l-12 -99h-298zM70.002 1536h1852v-1460h-1852v1460z
M1890 1503h-1787v-1395h1787v1395z" />
    <glyph glyph-name="copyright" unicode="&#xa9;" horiz-adv-x="1060" 
d="M530 1612c124.667 0 230.667 -44 318 -132c88 -87.333 132 -193.333 132 -318c0 -124 -44 -230 -132 -318s-194 -132 -318 -132s-230 44 -318 132s-132 194 -132 318c0 124.667 44 230.667 132 318c86.667 88 192.667 132 318 132zM530 911.001
c-138.777 0 -252 113.323 -252 250.999c0 136.069 113.046 252 252 252l-1.00293 -1c79.0479 0 134.155 -32.6953 179 -74l-72 -71c-29.333 30 -64.666 45 -105.999 45c-81.5576 0 -151 -68.6357 -151 -150.999c0 -83.3486 68.373 -151 151 -151
c40.667 0 76.334 14.667 107.001 44l71 -71c-41.9316 -39.5361 -99.3701 -73 -177.999 -73zM885.997 1162c0 195.616 -160.768 357 -356 357c-194.514 0 -356 -161.394 -356 -357c0 -194.788 162.022 -356 356 -356c194.709 0 356 161.219 356 356z" />
    <glyph glyph-name="guillemotleft" unicode="&#xab;" horiz-adv-x="1425" 
d="M650 1120l-550.301 -470l550.301 -470l155 117.6l-359.601 352.4l359.601 353.1zM1170 1120l-550.301 -470l550.301 -470l155 117.6l-359.601 352.4l359.601 353.1z" />
    <glyph glyph-name="logicalnot" unicode="&#xac;" horiz-adv-x="1992" 
d="M217 741l262.001 -285.001c22.3008 182.699 44.6387 365.361 67 548l-167 -197l-118 197l-25 -205h-100l62 505l202 -331l284 331c-43.9268 -360.073 -88.1328 -719.867 -133.001 -1079l-263 284l-33 -275h-100zM845.001 960.999h88l-31 104zM794.001 874.999l-1 -4
l-42 -72h-106l287 504l165 -504c33.834 -114.166 70.0566 -225.943 105 -339l150 272h107l-286 -507l-162 507l-26 74c-7.34473 22.9883 -14.5977 46.0684 -22 69h-169zM1133 797.999c14.7402 106.593 28.5459 214.122 42.001 322.001l21 173h161
c106.239 0 169.003 -73.9785 155 -179c-9.38477 -67.0303 -58.7471 -121.953 -121.001 -144.001l90 -172h-121l-103 194l-24 -194h-100zM1266 1055l72 -1.00098c53.1006 0 98.4053 75.8398 58 121.001c-12 13.333 -31.333 20 -58 20h-55
c-5.30469 -47.0283 -10.9902 -93.6768 -17 -140zM1763 1148c1.30371 29.9775 -17.8291 51.002 -45.001 51.002c-44.5713 0 -78.5205 -62.3584 -38.999 -92c23.7881 -17.8418 30.1797 -19.2969 56.999 -26.002c53.5635 -19.4766 110.322 -58.2803 102.999 -136.999
c-10.0781 -78.1084 -84.9375 -149 -169 -149c-80.918 0 -143.844 64.9561 -133 149h101c-5.22559 -28.7363 17.0127 -51 43.999 -51c28.1064 0 52.3027 25.1191 56 51c5.11133 39.6045 -26.8652 40.9365 -53 53.999l0.00195312 4
c-61.0322 20.3467 -133.696 56.1279 -122.998 146c8.71191 77.1543 84.3018 148 169 148c79.2422 0 141.462 -64.1943 131.999 -148h-100zM688.002 734.001h297l-12 -99h-198l-13 -101h149l-12 -99h-149l-12 -100h199l-12 -99h-298zM70.002 1536h1852v-1460h-1852v1460z
M1890 1503h-1787v-1395h1787v1395z" />
    <glyph glyph-name="registered" unicode="&#xae;" horiz-adv-x="1060" 
d="M530 1612c124.667 0 230.667 -44 318 -132c88 -87.333 132 -193.333 132 -318c0 -124 -44 -230 -132 -318s-194 -132 -318 -132s-230 44 -318 132s-132 194 -132 318c0 124.667 44 230.667 132 318c86.667 88 192.667 132 318 132zM705 1232
c0 -69.8691 -44.0225 -121.654 -103 -145l112 -173h-121l-128 195v-195h-100v497.999h162c96.8223 0 178 -70.3955 178 -164.999v-15zM602 1244c0 44.3965 -32.0273 68.999 -81 68.999h-56v-140l71.001 -0.998047c37.3916 0 65.999 32.8262 65.999 71.999zM886.001 1162
c0 195.616 -160.768 357 -356 357c-194.514 0 -356 -161.394 -356 -357c0 -194.788 162.022 -356 356 -356c194.709 0 356 161.219 356 356z" />
    <glyph glyph-name="macron" unicode="&#xaf;" horiz-adv-x="1992" 
d="M217 741l262.001 -285.001c22.3008 182.699 44.6387 365.361 67 548l-167 -197l-118 197l-25 -205h-100l62 505l202 -331l284 331c-43.9268 -360.073 -88.1328 -719.867 -133.001 -1079l-263 284l-33 -275h-100zM845.001 960.999h88l-31 104zM794.001 874.999l-1 -4
l-42 -72h-106l287 504l165 -504c33.834 -114.166 70.0566 -225.943 105 -339l150 272h107l-286 -507l-162 507l-26 74c-7.34473 22.9883 -14.5977 46.0684 -22 69h-169zM1133 797.999c14.7402 106.593 28.5459 214.122 42.001 322.001l21 173h161
c106.239 0 169.003 -73.9785 155 -179c-9.38477 -67.0303 -58.7471 -121.953 -121.001 -144.001l90 -172h-121l-103 194l-24 -194h-100zM1266 1055l72 -1.00098c53.1006 0 98.4053 75.8398 58 121.001c-12 13.333 -31.333 20 -58 20h-55
c-5.30469 -47.0283 -10.9902 -93.6768 -17 -140zM1763 1148c1.30371 29.9775 -17.8291 51.002 -45.001 51.002c-44.5713 0 -78.5205 -62.3584 -38.999 -92c23.7881 -17.8418 30.1797 -19.2969 56.999 -26.002c53.5635 -19.4766 110.322 -58.2803 102.999 -136.999
c-10.0781 -78.1084 -84.9375 -149 -169 -149c-80.918 0 -143.844 64.9561 -133 149h101c-5.22559 -28.7363 17.0127 -51 43.999 -51c28.1064 0 52.3027 25.1191 56 51c5.11133 39.6045 -26.8652 40.9365 -53 53.999l0.00195312 4
c-61.0322 20.3467 -133.696 56.1279 -122.998 146c8.71191 77.1543 84.3018 148 169 148c79.2422 0 141.462 -64.1943 131.999 -148h-100zM688.002 734.001h297l-12 -99h-198l-13 -101h149l-12 -99h-149l-12 -100h199l-12 -99h-298zM70.002 1536h1852v-1460h-1852v1460z
M1890 1503h-1787v-1395h1787v1395z" />
    <glyph glyph-name="degree" unicode="&#xb0;" horiz-adv-x="684" 
d="M481 1492c0 75.3486 -63.6533 139 -139 139c-75.3496 0 -139.001 -63.6533 -139.001 -139c0 -76.7998 62.2158 -139 139 -139c76.0742 0 139.001 62.2158 139.001 139zM60 1491c0 152.738 128.105 283.001 281.999 283.001c153.895 0 281.999 -128.816 281.999 -283
c0 -154.814 -128.64 -282 -281.999 -282c-153.363 0 -281.999 128.641 -281.999 281.999z" />
    <glyph glyph-name="plusminus" unicode="&#xb1;" horiz-adv-x="1992" 
d="M217 741l262.001 -285.001c22.3008 182.699 44.6387 365.361 67 548l-167 -197l-118 197l-25 -205h-100l62 505l202 -331l284 331c-43.9268 -360.073 -88.1328 -719.867 -133.001 -1079l-263 284l-33 -275h-100zM845.001 960.999h88l-31 104zM794.001 874.999l-1 -4
l-42 -72h-106l287 504l165 -504c33.834 -114.166 70.0566 -225.943 105 -339l150 272h107l-286 -507l-162 507l-26 74c-7.34473 22.9883 -14.5977 46.0684 -22 69h-169zM1133 797.999c14.7402 106.593 28.5459 214.122 42.001 322.001l21 173h161
c106.239 0 169.003 -73.9785 155 -179c-9.38477 -67.0303 -58.7471 -121.953 -121.001 -144.001l90 -172h-121l-103 194l-24 -194h-100zM1266 1055l72 -1.00098c53.1006 0 98.4053 75.8398 58 121.001c-12 13.333 -31.333 20 -58 20h-55
c-5.30469 -47.0283 -10.9902 -93.6768 -17 -140zM1763 1148c1.30371 29.9775 -17.8291 51.002 -45.001 51.002c-44.5713 0 -78.5205 -62.3584 -38.999 -92c23.7881 -17.8418 30.1797 -19.2969 56.999 -26.002c53.5635 -19.4766 110.322 -58.2803 102.999 -136.999
c-10.0781 -78.1084 -84.9375 -149 -169 -149c-80.918 0 -143.844 64.9561 -133 149h101c-5.22559 -28.7363 17.0127 -51 43.999 -51c28.1064 0 52.3027 25.1191 56 51c5.11133 39.6045 -26.8652 40.9365 -53 53.999l0.00195312 4
c-61.0322 20.3467 -133.696 56.1279 -122.998 146c8.71191 77.1543 84.3018 148 169 148c79.2422 0 141.462 -64.1943 131.999 -148h-100zM688.002 734.001h297l-12 -99h-198l-13 -101h149l-12 -99h-149l-12 -100h199l-12 -99h-298zM70.002 1536h1852v-1460h-1852v1460z
M1890 1503h-1787v-1395h1787v1395z" />
    <glyph glyph-name="uni00B2" unicode="&#xb2;" horiz-adv-x="1992" 
d="M217 741l262 -285c22.3008 182.699 44.6387 365.361 67 548l-167 -197l-118 197l-25 -205h-100l62 505l202 -331l284 331c-43.9268 -360.073 -88.1318 -719.868 -133 -1079l-263 284l-33 -275h-100zM845 961h88l-31 104zM794 875l-1 -4l-42 -72h-106l287 504l165 -504
c33.834 -114.166 70.0566 -225.943 105 -339l150 272h107l-286 -507l-162 507l-26 74c-7.34473 22.9883 -14.5977 46.0684 -22 69h-169zM1133 798c14.7402 106.593 28.5459 214.121 42.001 322l21 173h161c106.239 0 169.003 -73.9785 155 -179
c-9.38477 -67.0303 -58.7471 -121.952 -121.001 -144l90 -172h-121l-103 194l-24 -194h-100zM1266 1055l72 -1.00098c53.1006 0 98.4053 75.8398 58 121.001c-12 13.333 -31.333 20 -58 20h-55c-5.30469 -47.0283 -10.9902 -93.6768 -17 -140zM1763 1148
c1.30371 29.9775 -17.8271 51 -44.999 51c-44.5713 0 -78.5215 -62.3584 -39 -92c23.7881 -17.8418 30.1797 -19.2959 56.999 -26.001c53.5635 -19.4766 110.322 -58.2803 102.999 -136.999c-10.0781 -78.1084 -84.9375 -149 -169 -149c-80.918 0 -143.844 64.9561 -133 149
h101c-5.22559 -28.7363 17.0127 -51 43.999 -51c28.1064 0 52.3027 25.1191 56 51c5.11133 39.6045 -26.8662 40.9375 -53.001 54l0.00195312 4c-61.0322 20.3467 -133.697 56.1279 -122.999 146c8.71191 77.1543 84.3018 148 169 148c79.2422 0 141.463 -64.1943 132 -148
h-100zM688.003 733.999h297l-12 -99h-198l-13 -101h149l-12 -99h-149l-12 -100h199l-12 -99h-298zM70.0029 1536h1852v-1460h-1852v1460zM1890 1503h-1787v-1395h1787v1395z" />
    <glyph glyph-name="uni00B3" unicode="&#xb3;" horiz-adv-x="1992" 
d="M217 741l262 -285c22.3008 182.699 44.6387 365.361 67 548l-167 -197l-118 197l-25 -205h-100l62 505l202 -331l284 331c-43.9268 -360.073 -88.1318 -719.868 -133 -1079l-263 284l-33 -275h-100zM845 961h88l-31 104zM794 875l-1 -4l-42 -72h-106l287 504l165 -504
c33.834 -114.166 70.0566 -225.943 105 -339l150 272h107l-286 -507l-162 507l-26 74c-7.34473 22.9883 -14.5977 46.0684 -22 69h-169zM1133 798c14.7402 106.593 28.5459 214.121 42.001 322l21 173h161c106.239 0 169.003 -73.9785 155 -179
c-9.38477 -67.0303 -58.7471 -121.952 -121.001 -144l90 -172h-121l-103 194l-24 -194h-100zM1266 1055l72 -1.00098c53.1006 0 98.4053 75.8398 58 121.001c-12 13.333 -31.333 20 -58 20h-55c-5.30469 -47.0283 -10.9902 -93.6768 -17 -140zM1763 1148
c1.30371 29.9775 -17.8271 51 -44.999 51c-44.5713 0 -78.5215 -62.3584 -39 -92c23.7881 -17.8418 30.1797 -19.2959 56.999 -26.001c53.5635 -19.4766 110.322 -58.2803 102.999 -136.999c-10.0781 -78.1084 -84.9375 -149 -169 -149c-80.918 0 -143.844 64.9561 -133 149
h101c-5.22559 -28.7363 17.0127 -51 43.999 -51c28.1064 0 52.3027 25.1191 56 51c5.11133 39.6045 -26.8662 40.9375 -53.001 54l0.00195312 4c-61.0322 20.3467 -133.697 56.1279 -122.999 146c8.71191 77.1543 84.3018 148 169 148c79.2422 0 141.463 -64.1943 132 -148
h-100zM688.003 733.999h297l-12 -99h-198l-13 -101h149l-12 -99h-149l-12 -100h199l-12 -99h-298zM70.0029 1536h1852v-1460h-1852v1460zM1890 1503h-1787v-1395h1787v1395z" />
    <glyph glyph-name="acute" unicode="&#xb4;" horiz-adv-x="1992" 
d="M217 741l262 -285c22.3008 182.699 44.6387 365.361 67 548l-167 -197l-118 197l-25 -205h-100l62 505l202 -331l284 331c-43.9268 -360.073 -88.1318 -719.868 -133 -1079l-263 284l-33 -275h-100zM845 961h88l-31 104zM794 875l-1 -4l-42 -72h-106l287 504l165 -504
c33.834 -114.166 70.0566 -225.943 105 -339l150 272h107l-286 -507l-162 507l-26 74c-7.34473 22.9883 -14.5977 46.0684 -22 69h-169zM1133 798c14.7402 106.593 28.5459 214.121 42.001 322l21 173h161c106.239 0 169.003 -73.9785 155 -179
c-9.38477 -67.0303 -58.7471 -121.952 -121.001 -144l90 -172h-121l-103 194l-24 -194h-100zM1266 1055l72 -1.00098c53.1006 0 98.4053 75.8398 58 121.001c-12 13.333 -31.333 20 -58 20h-55c-5.30469 -47.0283 -10.9902 -93.6768 -17 -140zM1763 1148
c1.30371 29.9775 -17.8271 51 -44.999 51c-44.5713 0 -78.5215 -62.3584 -39 -92c23.7881 -17.8418 30.1797 -19.2959 56.999 -26.001c53.5635 -19.4766 110.322 -58.2803 102.999 -136.999c-10.0781 -78.1084 -84.9375 -149 -169 -149c-80.918 0 -143.844 64.9561 -133 149
h101c-5.22559 -28.7363 17.0127 -51 43.999 -51c28.1064 0 52.3027 25.1191 56 51c5.11133 39.6045 -26.8662 40.9375 -53.001 54l0.00195312 4c-61.0322 20.3467 -133.697 56.1279 -122.999 146c8.71191 77.1543 84.3018 148 169 148c79.2422 0 141.463 -64.1943 132 -148
h-100zM688.003 733.999h297l-12 -99h-198l-13 -101h149l-12 -99h-149l-12 -100h199l-12 -99h-298zM70.0029 1536h1852v-1460h-1852v1460zM1890 1503h-1787v-1395h1787v1395z" />
    <glyph glyph-name="mu" unicode="&#xb5;" horiz-adv-x="1992" 
d="M217 741l262 -285c22.3008 182.699 44.6387 365.361 67 548l-167 -197l-118 197l-25 -205h-100l62 505l202 -331l284 331c-43.9268 -360.073 -88.1318 -719.868 -133 -1079l-263 284l-33 -275h-100zM845 961h88l-31 104zM794 875l-1 -4l-42 -72h-106l287 504l165 -504
c33.834 -114.166 70.0566 -225.943 105 -339l150 272h107l-286 -507l-162 507l-26 74c-7.34473 22.9883 -14.5977 46.0684 -22 69h-169zM1133 798c14.7402 106.593 28.5459 214.121 42.001 322l21 173h161c106.239 0 169.003 -73.9785 155 -179
c-9.38477 -67.0303 -58.7471 -121.952 -121.001 -144l90 -172h-121l-103 194l-24 -194h-100zM1266 1055l72 -1.00098c53.1006 0 98.4053 75.8398 58 121.001c-12 13.333 -31.333 20 -58 20h-55c-5.30469 -47.0283 -10.9902 -93.6768 -17 -140zM1763 1148
c1.30371 29.9775 -17.8271 51 -44.999 51c-44.5713 0 -78.5215 -62.3584 -39 -92c23.7881 -17.8418 30.1797 -19.2959 56.999 -26.001c53.5635 -19.4766 110.322 -58.2803 102.999 -136.999c-10.0781 -78.1084 -84.9375 -149 -169 -149c-80.918 0 -143.844 64.9561 -133 149
h101c-5.22559 -28.7363 17.0127 -51 43.999 -51c28.1064 0 52.3027 25.1191 56 51c5.11133 39.6045 -26.8662 40.9375 -53.001 54l0.00195312 4c-61.0322 20.3467 -133.697 56.1279 -122.999 146c8.71191 77.1543 84.3018 148 169 148c79.2422 0 141.463 -64.1943 132 -148
h-100zM688.003 733.999h297l-12 -99h-198l-13 -101h149l-12 -99h-149l-12 -100h199l-12 -99h-298zM70.0029 1536h1852v-1460h-1852v1460zM1890 1503h-1787v-1395h1787v1395z" />
    <glyph glyph-name="paragraph" unicode="&#xb6;" horiz-adv-x="1992" 
d="M217 741l262.001 -285.001c22.3008 182.699 44.6387 365.361 67 548l-167 -197l-118 197l-25 -205h-100l62 505l202 -331l284 331c-43.9268 -360.073 -88.1328 -719.867 -133.001 -1079l-263 284l-33 -275h-100zM845.001 960.999h88l-31 104zM794.001 874.999l-1 -4
l-42 -72h-106l287 504l165 -504c33.834 -114.166 70.0566 -225.943 105 -339l150 272h107l-286 -507l-162 507l-26 74c-7.34473 22.9883 -14.5977 46.0684 -22 69h-169zM1133 797.999c14.7402 106.593 28.5459 214.122 42.001 322.001l21 173h161
c106.239 0 169.003 -73.9785 155 -179c-9.38477 -67.0303 -58.7471 -121.953 -121.001 -144.001l90 -172h-121l-103 194l-24 -194h-100zM1266 1055l72 -1.00098c53.1006 0 98.4053 75.8398 58 121.001c-12 13.333 -31.333 20 -58 20h-55
c-5.30469 -47.0283 -10.9902 -93.6768 -17 -140zM1763 1148c1.30371 29.9775 -17.8291 51.002 -45.001 51.002c-44.5713 0 -78.5205 -62.3584 -38.999 -92c23.7881 -17.8418 30.1797 -19.2969 56.999 -26.002c53.5635 -19.4766 110.322 -58.2803 102.999 -136.999
c-10.0781 -78.1084 -84.9375 -149 -169 -149c-80.918 0 -143.844 64.9561 -133 149h101c-5.22559 -28.7363 17.0127 -51 43.999 -51c28.1064 0 52.3027 25.1191 56 51c5.11133 39.6045 -26.8652 40.9365 -53 53.999l0.00195312 4
c-61.0322 20.3467 -133.696 56.1279 -122.998 146c8.71191 77.1543 84.3018 148 169 148c79.2422 0 141.462 -64.1943 131.999 -148h-100zM688.002 734.001h297l-12 -99h-198l-13 -101h149l-12 -99h-149l-12 -100h199l-12 -99h-298zM70.002 1536h1852v-1460h-1852v1460z
M1890 1503h-1787v-1395h1787v1395z" />
    <glyph glyph-name="guillemotright" unicode="&#xbb;" horiz-adv-x="1425" 
d="M774.699 1120l550.301 -470l-550.301 -470l-155 117.6l359.601 352.4l-359.601 353.1zM254.699 1120l550.301 -470l-550.301 -470l-155 117.6l359.601 352.4l-359.601 353.1z" />
    <glyph glyph-name="onequarter" unicode="&#xbc;" horiz-adv-x="1992" 
d="M217 741l262 -285c22.3008 182.699 44.6387 365.361 67 548l-167 -197l-118 197l-25 -205h-100l62 505l202 -331l284 331c-43.9268 -360.073 -88.1318 -719.868 -133 -1079l-263 284l-33 -275h-100zM845 961h88l-31 104zM794 875l-1 -4l-42 -72h-106l287 504l165 -504
c33.834 -114.166 70.0566 -225.943 105 -339l150 272h107l-286 -507l-162 507l-26 74c-7.34473 22.9883 -14.5977 46.0684 -22 69h-169zM1133 798c14.7402 106.593 28.5459 214.121 42.001 322l21 173h161c106.239 0 169.003 -73.9785 155 -179
c-9.38477 -67.0303 -58.7471 -121.952 -121.001 -144l90 -172h-121l-103 194l-24 -194h-100zM1266 1055l72 -1.00098c53.1006 0 98.4053 75.8398 58 121.001c-12 13.333 -31.333 20 -58 20h-55c-5.30469 -47.0283 -10.9902 -93.6768 -17 -140zM1763 1148
c1.30371 29.9775 -17.8271 51 -44.999 51c-44.5713 0 -78.5215 -62.3584 -39 -92c23.7881 -17.8418 30.1797 -19.2959 56.999 -26.001c53.5635 -19.4766 110.322 -58.2803 102.999 -136.999c-10.0781 -78.1084 -84.9375 -149 -169 -149c-80.918 0 -143.844 64.9561 -133 149
h101c-5.22559 -28.7363 17.0127 -51 43.999 -51c28.1064 0 52.3027 25.1191 56 51c5.11133 39.6045 -26.8662 40.9375 -53.001 54l0.00195312 4c-61.0322 20.3467 -133.697 56.1279 -122.999 146c8.71191 77.1543 84.3018 148 169 148c79.2422 0 141.463 -64.1943 132 -148
h-100zM688.003 733.999h297l-12 -99h-198l-13 -101h149l-12 -99h-149l-12 -100h199l-12 -99h-298zM70.0029 1536h1852v-1460h-1852v1460zM1890 1503h-1787v-1395h1787v1395z" />
    <glyph glyph-name="onehalf" unicode="&#xbd;" horiz-adv-x="1992" 
d="M217 741l262 -285c22.3008 182.699 44.6387 365.361 67 548l-167 -197l-118 197l-25 -205h-100l62 505l202 -331l284 331c-43.9268 -360.073 -88.1318 -719.868 -133 -1079l-263 284l-33 -275h-100zM845 961h88l-31 104zM794 875l-1 -4l-42 -72h-106l287 504l165 -504
c33.834 -114.166 70.0566 -225.943 105 -339l150 272h107l-286 -507l-162 507l-26 74c-7.34473 22.9883 -14.5977 46.0684 -22 69h-169zM1133 798c14.7402 106.593 28.5459 214.121 42.001 322l21 173h161c106.239 0 169.003 -73.9785 155 -179
c-9.38477 -67.0303 -58.7471 -121.952 -121.001 -144l90 -172h-121l-103 194l-24 -194h-100zM1266 1055l72 -1.00098c53.1006 0 98.4053 75.8398 58 121.001c-12 13.333 -31.333 20 -58 20h-55c-5.30469 -47.0283 -10.9902 -93.6768 -17 -140zM1763 1148
c1.30371 29.9775 -17.8271 51 -44.999 51c-44.5713 0 -78.5215 -62.3584 -39 -92c23.7881 -17.8418 30.1797 -19.2959 56.999 -26.001c53.5635 -19.4766 110.322 -58.2803 102.999 -136.999c-10.0781 -78.1084 -84.9375 -149 -169 -149c-80.918 0 -143.844 64.9561 -133 149
h101c-5.22559 -28.7363 17.0127 -51 43.999 -51c28.1064 0 52.3027 25.1191 56 51c5.11133 39.6045 -26.8662 40.9375 -53.001 54l0.00195312 4c-61.0322 20.3467 -133.697 56.1279 -122.999 146c8.71191 77.1543 84.3018 148 169 148c79.2422 0 141.463 -64.1943 132 -148
h-100zM688.003 733.999h297l-12 -99h-198l-13 -101h149l-12 -99h-149l-12 -100h199l-12 -99h-298zM70.0029 1536h1852v-1460h-1852v1460zM1890 1503h-1787v-1395h1787v1395z" />
    <glyph glyph-name="threequarters" unicode="&#xbe;" horiz-adv-x="1992" 
d="M217 741l262 -285c22.3008 182.699 44.6387 365.361 67 548l-167 -197l-118 197l-25 -205h-100l62 505l202 -331l284 331c-43.9268 -360.073 -88.1318 -719.868 -133 -1079l-263 284l-33 -275h-100zM845 961h88l-31 104zM794 875l-1 -4l-42 -72h-106l287 504l165 -504
c33.834 -114.166 70.0566 -225.943 105 -339l150 272h107l-286 -507l-162 507l-26 74c-7.34473 22.9883 -14.5977 46.0684 -22 69h-169zM1133 798c14.7402 106.593 28.5459 214.121 42.001 322l21 173h161c106.239 0 169.003 -73.9785 155 -179
c-9.38477 -67.0303 -58.7471 -121.952 -121.001 -144l90 -172h-121l-103 194l-24 -194h-100zM1266 1055l72 -1.00098c53.1006 0 98.4053 75.8398 58 121.001c-12 13.333 -31.333 20 -58 20h-55c-5.30469 -47.0283 -10.9902 -93.6768 -17 -140zM1763 1148
c1.30371 29.9775 -17.8271 51 -44.999 51c-44.5713 0 -78.5215 -62.3584 -39 -92c23.7881 -17.8418 30.1797 -19.2959 56.999 -26.001c53.5635 -19.4766 110.322 -58.2803 102.999 -136.999c-10.0781 -78.1084 -84.9375 -149 -169 -149c-80.918 0 -143.844 64.9561 -133 149
h101c-5.22559 -28.7363 17.0127 -51 43.999 -51c28.1064 0 52.3027 25.1191 56 51c5.11133 39.6045 -26.8662 40.9375 -53.001 54l0.00195312 4c-61.0322 20.3467 -133.697 56.1279 -122.999 146c8.71191 77.1543 84.3018 148 169 148c79.2422 0 141.463 -64.1943 132 -148
h-100zM688.003 733.999h297l-12 -99h-198l-13 -101h149l-12 -99h-149l-12 -100h199l-12 -99h-298zM70.0029 1536h1852v-1460h-1852v1460zM1890 1503h-1787v-1395h1787v1395z" />
    <glyph glyph-name="questiondown" unicode="&#xbf;" horiz-adv-x="1063" 
d="M540.999 1423c112.37 0 207.001 -93.6074 207.001 -206c0 -114.199 -93.5537 -203 -207.001 -203c-114.285 0 -206.999 92.3955 -206.999 207c0 113.022 93.7881 202 206.999 202zM532.999 85.9971c89.1084 0 163 74.6006 163 164h327
c0 -135.333 -48.333 -250.666 -145 -345.999c-96 -96.667 -211.333 -145 -346 -145c-135.333 0 -251.333 48.333 -348 145c-96 96 -144 211.333 -144 346c0 62.667 14.333 115.334 43 158.001c30.667 44.667 64.334 84.334 101.001 119.001c56 56 109 110.5 159 163.5
s65 127.833 45 224.5l328.998 0.998047v-29c0 -100 -16.667 -179.5 -50 -238.5s-80.666 -119.167 -141.999 -180.5c-33.333 -32 -67.333 -69 -102 -111c-36 -43.333 -54 -79 -54 -107c0 -88.1465 75.0459 -164.001 164 -164.001z" />
    <glyph glyph-name="Agrave" unicode="&#xc0;" horiz-adv-x="1551" 
d="M665 2223l258 -366l-116 -89l-330 307zM40 0l735 1645l736 -1645h-351l-109 245h-552l-109 -245h-350zM627 531h296l-147 341z" />
    <glyph glyph-name="Aacute" unicode="&#xc1;" horiz-adv-x="1551" 
d="M886 2223l188 -148l-329 -307l-117 89zM40 0l735 1645l736 -1645h-351l-109 245h-552l-109 -245h-350zM627 531h296l-147 341z" />
    <glyph glyph-name="Acircumflex" unicode="&#xc2;" horiz-adv-x="1551" 
d="M510 1749l263 415l265 -415h-164l-101 158l-101 -158h-162zM40 0l735 1645l736 -1645h-351l-109 245h-552l-109 -245h-350zM627 531h296l-147 341z" />
    <glyph glyph-name="Atilde" unicode="&#xc3;" horiz-adv-x="1551" 
d="M1167 1757l1 -0.998047c-44 -54.667 -90 -78.834 -138 -72.501s-125 28.5 -231 66.5c-112 40 -187.333 53.333 -226 40s-85 -47.666 -139 -102.999l-5 179c47.333 51.333 93.833 84.166 139.5 98.499s130.5 -4.5 254.5 -56.5c114 -48.667 189.667 -65.334 227 -50.001
s77 46 119 92zM40 0.00195312l735 1645l736 -1645h-351l-109 245h-552l-109 -245h-350zM627 531.002h296l-147 341z" />
    <glyph glyph-name="Adieresis" unicode="&#xc4;" horiz-adv-x="1551" 
d="M886.001 1869c0 65.2695 54.3867 121 119.999 121c65.5879 0 121 -55.7314 121 -121c0 -66.1455 -54.8828 -119.999 -121 -119.999c-66.1445 0 -119.999 53.8564 -119.999 119.999zM40 0l735 1645l736 -1645h-351l-109 245h-552l-109 -245h-350zM627 531h296l-147 341z
M435 1869c0 65.2686 55.417 121 121 121c64.7607 0 120.001 -56.2676 120.001 -121c0 -65.6152 -54.707 -119.999 -120.001 -119.999c-66.1191 0 -121 53.8555 -121 119.999z" />
    <glyph glyph-name="Aring" unicode="&#xc5;" horiz-adv-x="1544" 
d="M549 1888c0 103.672 85.0098 189 189 189c103.141 0 189 -85.8623 189 -189c0 -103.141 -85.8623 -189 -189 -189c-103.995 0 -189 85.3281 -189 189zM738 1966c-52.667 0 -79 -26.333 -79 -79c0 -52 26.333 -78 79 -78s79 26 79 78c0 52.667 -26.333 79 -79 79zM0 0
l735 1645l736 -1645h-351l-109 245h-552l-109 -245h-350zM587 531h296l-147 341z" />
    <glyph glyph-name="AE" unicode="&#xc6;" horiz-adv-x="2042" 
d="M499 248c-34.5986 -83.4014 -73.7031 -162.297 -110 -244h-349l734 1615h1228v-323h-647v-325h485v-323h-485v-325h647v-323h-972v240l-4 8h-527zM1031 541v765h-44l-355 -771z" />
    <glyph glyph-name="Ccedilla" unicode="&#xc7;" horiz-adv-x="1477" 
d="M731 -3c-172.667 24 -322.996 100.669 -450.996 230.002c-160 158.667 -240 351 -240 577c0 225.333 80 418.666 240 579.999c159.333 160.667 351.666 241 576.999 241l-1 -4c249.343 0 447.208 -108.58 579.999 -238.999l-231 -232
c-96.667 96.667 -212.334 145 -347.001 145c-136 0 -251.333 -48.333 -346 -145c-96 -97.333 -144 -213 -144 -347c0 -134.667 48 -250.334 144 -347.001c95.333 -95.333 210.666 -143 345.999 -143c134.667 0 250.667 48 348 144l231 -230
c-74.667 -74.667 -162 -133.334 -262 -176.001c-62 -27.333 -126.667 -45.333 -194 -54c0 -202.245 -85.6611 -384.082 -187 -467.501l-82 -67.5l-197 204l30 10.5c20 7 57 41.5 111 103.5c44.4043 52.585 68.7617 132.799 75 217.001z" />
    <glyph glyph-name="Egrave" unicode="&#xc8;" 
d="M332 2078l188 148l258 -366l-116 -89zM100 1620h972v-324h-647v-324h485v-324h-485v-324h647v-324h-972v1620z" />
    <glyph glyph-name="Eacute" unicode="&#xc9;" 
d="M100 1620h972v-324h-647v-324h485v-324h-485v-324h647v-324h-972v1620zM693 2226l188 -148l-330 -307l-116 89z" />
    <glyph glyph-name="Ecircumflex" unicode="&#xca;" 
d="M100 1620h972v-324h-647v-324h485v-324h-485v-324h647v-324h-972v1620zM325 1753l263 415l266 -415h-164l-102 158l-100 -158h-163z" />
    <glyph glyph-name="Edieresis" unicode="&#xcb;" 
d="M238.001 1902c0 65.2695 54.3867 121 119.999 121c64.7607 0 120.001 -56.2676 120.001 -121c0 -65.6152 -54.707 -119.999 -120.001 -119.999c-66.1445 0 -119.999 53.8564 -119.999 119.999zM686 1902c0 65.8027 54.5605 121 121 121
c64.7607 0 120.001 -56.2676 120.001 -121c0 -65.6152 -54.707 -119.999 -120.001 -119.999c-66.9727 0 -121 53.3242 -121 119.999zM100 1619h972v-323h-648v-325h486v-323h-486v-325h648v-323h-972v1619z" />
    <glyph glyph-name="Igrave" unicode="&#xcc;" horiz-adv-x="574" 
d="M0 2078l188 148l258 -366l-116 -89zM150 0v1620h324v-1620h-324z" />
    <glyph glyph-name="Iacute" unicode="&#xcd;" horiz-adv-x="589" 
d="M100 0v1620h325v-1620h-325zM401 2226l188 -148l-329 -307l-117 89z" />
    <glyph glyph-name="Icircumflex" unicode="&#xce;" horiz-adv-x="569" 
d="M20 1753l263 415l266 -415h-164l-102 158l-100 -158h-163zM122 0v1620h325v-1620h-325z" />
    <glyph glyph-name="Idieresis" unicode="&#xcf;" horiz-adv-x="690" 
d="M0 1902c0 65.2695 54.3867 121 119.999 121c65.5879 0 121 -55.7314 121 -121c0 -66.1455 -54.8828 -119.999 -121 -119.999c-66.1445 0 -119.999 53.8564 -119.999 119.999zM450.999 1902c0 64.7344 54.2158 121 119 121h0.999023
c64.7607 0 120.001 -56.2676 120.001 -121c0 -65.6152 -54.707 -119.999 -120.001 -119.999c-66.1445 0 -119.999 53.8564 -119.999 119.999zM174.998 0v1619h325v-1619h-325z" />
    <glyph glyph-name="Eth" unicode="&#xd0;" horiz-adv-x="1428" 
d="M581 324.001c291.756 0 482 193.033 482 485c0 297.82 -186.706 484.999 -485 484.999h-74v-389l288 -1v-212l-288 1v-369h76zM580 1616c236 0 433.332 -79.333 591.999 -238c144 -144.667 216 -335 216 -571s-72 -426 -216 -570
c-159.333 -158 -356.666 -237 -591.999 -237h-399v693h-141v212h141v711h399z" />
    <glyph glyph-name="Ntilde" unicode="&#xd1;" horiz-adv-x="1476" 
d="M1063 1807l1 -0.998047c-44 -54.667 -90 -78.834 -138 -72.501s-125 28.5 -231 66.5c-112 40 -187.167 53.333 -225.5 40s-84.833 -47.666 -139.5 -102.999l-5 179c48 51.333 94.667 84.166 140 98.499s130 -4.5 254 -56.5c114 -48.667 189.667 -65.334 227 -50.001
s77 46 119 92zM90 1646l971 -926v895h325v-1648l-972 925v-895h-324v1649z" />
    <glyph glyph-name="Ograve" unicode="&#xd2;" horiz-adv-x="1718" 
d="M523 2075l188 148l258 -366l-116 -89zM858 1625c224.667 0 417.333 -80.666 578 -241.999c161.333 -160.667 242 -353.334 242 -578.001c0 -225.333 -80.667 -418 -242 -578c-159.333 -159.333 -352 -239 -578 -239s-418.667 79.667 -578 239
c-160 160 -240 352.667 -240 578s80 418 240 578c160 161.333 352.667 242 578 242zM857.999 1298c-136.667 0 -252.333 -47.998 -347 -143.998c-96 -98.667 -144 -214.334 -144 -347.001c0 -134.667 48 -250.334 144 -347.001c95.333 -95.333 211 -143 347 -143
c133.333 0 249 47.667 347 143c96 96 144 211.667 144 347c0 134 -48 249.667 -144 347c-97.333 96 -213 144 -347 144z" />
    <glyph glyph-name="Oacute" unicode="&#xd3;" horiz-adv-x="1718" 
d="M924 2223l188 -148l-330 -307l-116 89zM858 1625c224.667 0 417.667 -80.666 579 -241.999c160.667 -160.667 241 -353.334 241 -578.001s-80.333 -417.334 -241 -578.001c-160.667 -159.333 -353.667 -239 -579 -239c-226 0 -418.667 79.667 -578 239
c-160 160.667 -240 353.334 -240 578.001c0 224 80 416.667 240 578s352.667 242 578 242zM858 1298c-135.333 0 -251 -47.998 -347 -143.998c-96 -98.667 -144 -214.334 -144 -347.001c0 -134.667 48 -250.334 144 -347.001c96 -95.333 211.667 -143 347 -143
c133.333 0 249 47.667 347 143c96 96 144 211.667 144 347c0 134 -48 249.667 -144 347c-97.333 96 -213 144 -347 144z" />
    <glyph glyph-name="Ocircumflex" unicode="&#xd4;" horiz-adv-x="1718" 
d="M591 1750l263 415l265 -415h-164l-101 158l-101 -158h-162zM858 1625c224.667 0 417.333 -80.667 578 -242c161.333 -160.667 242 -353.334 242 -578.001c0 -225.333 -80.667 -418 -242 -578c-159.333 -159.333 -352 -239 -578 -239s-418.667 79.667 -578 239
c-160 160.667 -240 353.334 -240 578.001c0 224 80 416.667 240 578s352.667 242 578 242zM857.999 1298c-135.333 0 -251 -47.998 -347 -143.998c-96 -98.667 -144 -214.334 -144 -347.001c0 -134.667 48 -250.334 144 -347.001c96 -95.333 211.667 -143 347 -143
c133.333 0 249 47.667 347 143c96 96 144 211.667 144 347c0 134 -48 249.667 -144 347c-97.333 96 -213 144 -347 144z" />
    <glyph glyph-name="Otilde" unicode="&#xd5;" horiz-adv-x="1717" 
d="M1235 1808l1.00098 -0.998047c-44 -54.667 -90.167 -78.834 -138.5 -72.501s-125.5 28.5 -231.5 66.5c-112.667 40 -188.167 53.333 -226.5 40s-84.5 -47.666 -138.5 -102.999l-5 179c47.333 51.333 93.666 84.166 138.999 98.499s130.333 -4.5 255 -56.5
c114 -48.667 189.667 -65.334 227 -50.001s77.333 46 120 92zM858.001 1624c225.333 0 418 -80.333 578 -241c160.667 -160.667 241 -353.667 241 -579c0 -226 -80.333 -418.333 -241 -577c-159.333 -159.333 -352 -239 -578 -239s-418.667 79.667 -578 239
c-160 158.667 -240 351 -240 577c0 224.667 80 417.667 240 579c159.333 160.667 352 241 578 241zM858.001 1298c-136 0 -251.668 -48.333 -347.001 -145c-96 -96 -144 -211.333 -144 -346c0 -136.667 48 -252.334 144 -347.001c94.667 -96 210.334 -144 347.001 -144
c134.667 0 250 48 346 144c96.667 94.667 145 210.334 145 347.001c0 134.667 -48.333 250 -145 346c-96.667 96.667 -212 145 -346 145z" />
    <glyph glyph-name="Odieresis" unicode="&#xd6;" horiz-adv-x="1717" 
d="M509 1899c0 65.8027 54.5605 121 121 121c64.7607 0 120.001 -56.2676 120.001 -121c0 -65.6152 -54.707 -119.999 -120.001 -119.999c-66.9727 0 -121 53.3242 -121 119.999zM960.001 1899c0 65.2695 54.3867 121 119.999 121c64.7344 0 121 -56.2676 121 -121
c0 -65.6162 -55.7295 -119.999 -121 -119.999c-66.1445 0 -119.999 53.8564 -119.999 119.999zM857 1624c225.333 0 418.333 -80.333 579 -241s241 -353.667 241 -579c0 -226 -80.333 -418.333 -241 -577c-160.667 -159.333 -353.667 -239 -579 -239
c-226.667 0 -419 79.667 -577 239c-160 158.667 -240 351 -240 577c0 224.667 80 417.667 240 579c158.667 160.667 351 241 577 241zM857 1298c-134.667 0 -250.333 -48.334 -347 -145.001c-95.333 -96.667 -143 -212 -143 -346c0 -136 47.667 -251.667 143 -347
c96 -96 211.667 -144 347 -144c134.667 0 250 48 346 144c97.333 94.667 146 210.334 146 347.001c0 134 -48.667 249.333 -146 346c-96.667 96.667 -212 145 -346 145z" />
    <glyph glyph-name="multiply" unicode="&#xd7;" horiz-adv-x="2048" 
 />
    <glyph glyph-name="Oslash" unicode="&#xd8;" horiz-adv-x="1717" 
d="M1091 1818l253 0.000976562l-100 -290c70 -39.333 134 -88 192 -146c160.667 -160.667 241 -353.334 241 -578.001c0 -226.667 -80.333 -419.334 -241 -578.001c-159.333 -159.333 -352 -239 -578 -239c-46 0 -92 3.66699 -138 11l-69 -203h-254l95 275
c-77.333 39.333 -148 91.333 -212 156c-160 158.667 -240 351.334 -240 578.001c0 224 80 416.667 240 578c159.333 160.667 352 241 578 241c55.333 0 109 -5 161 -15zM911 1294c-17.333 2 -35 3.00098 -53 3.00098c-136 0 -251.667 -48.333 -347 -145
c-96 -96 -144 -211.333 -144 -346c0 -136.667 48 -252.334 144 -347.001c27.333 -28 57 -52 89 -72zM829 316.002c6.66699 -0.666992 16.333 -1 29 -1c134.667 0 250 48 346 144c96.667 94.667 145 210.334 145 347.001c0 134.667 -48.333 250 -145 346
c-25.333 25.333 -48 44.666 -68 57.999z" />
    <glyph glyph-name="Ugrave" unicode="&#xd9;" horiz-adv-x="1483" 
d="M464 2074l188 148l258 -366l-117 -89zM741 316c175.455 0 326 147.142 326 324v976l326.002 -0.000976562v-977c0 -181.333 -63.667 -335 -191 -461c-126 -126.667 -279.333 -190 -460 -190s-334.334 63.333 -461.001 190c-127.333 126 -191 279.667 -191 461v977h327
v-976c0 -177.207 146.798 -323.999 323.999 -323.999z" />
    <glyph glyph-name="Uacute" unicode="&#xda;" horiz-adv-x="1483" 
d="M824 2222l188 -148l-330 -307l-117 89zM741 316c175.455 0 326 147.142 326 324v976l326.002 -0.000976562v-977c0 -181.333 -63.667 -335 -191 -461c-126 -126.667 -279.333 -190 -460 -190s-334.334 63.333 -461.001 190c-127.333 126 -191 279.667 -191 461v977h327
v-976c0 -177.207 146.798 -323.999 323.999 -323.999z" />
    <glyph glyph-name="Ucircumflex" unicode="&#xdb;" horiz-adv-x="1483" 
d="M475 1749l263 415l266 -415h-164l-102 158l-100 -158h-163zM741 316.001c175.455 0 326 147.861 326 323.999v976l326.002 0.000976562v-977c0 -181.333 -63.667 -335 -191 -461c-126 -126.667 -279.333 -190 -460 -190s-334.334 63.333 -461.001 190
c-127.333 126 -191 279.667 -191 461v977h327v-976c0 -176.481 146.797 -324 323.999 -324z" />
    <glyph glyph-name="Udieresis" unicode="&#xdc;" horiz-adv-x="1484" 
d="M742 316c175.455 0 326 149.304 326 324v975h326v-976c0 -180 -63.667 -333.667 -191 -461c-128 -126.667 -281.333 -190 -460 -190c-180.667 0 -334.667 63.333 -462 190c-127.333 127.333 -191 281 -191 461v976h326v-975c0 -175.757 148.85 -324 326 -324zM849 1898
c0 65.2148 54.7549 120.088 119.999 121c65.5879 0 121 -55.7314 121 -121c0 -66.1455 -54.8828 -119.999 -121 -119.999c-66.1445 0 -119.999 53.8564 -119.999 119.999zM399.999 1898c0 65.2686 55.417 121 121 121c64.7607 0 120.001 -56.2676 120.001 -121
c0 -65.6152 -54.707 -119.999 -120.001 -119.999c-66.1191 0 -121 53.8555 -121 119.999z" />
    <glyph glyph-name="Yacute" unicode="&#xdd;" horiz-adv-x="1375" 
d="M814 2226l188 -148l-330 -307l-117 89zM40 1620h368l279 -514l279 514h369l-486 -894v-726h-324v726z" />
    <glyph glyph-name="Thorn" unicode="&#xde;" horiz-adv-x="1230" 
d="M90 1612h323v-277h247c146.667 0 271.667 -51.667 375 -155s155 -228 155 -374c0 -145.333 -51.667 -270 -155 -374c-103.333 -103.333 -228.333 -155 -375 -155h-247v-277h-323v1612zM892 806c0 126.958 -105.046 232 -232 232h-247v-463h247
c126.426 0 232 103.436 232 231z" />
    <glyph glyph-name="germandbls" unicode="&#xdf;" horiz-adv-x="2197" 
d="M1640.69 312.871l-1.4668 1.4668c89.4736 0 188.238 74.3174 188.238 163.791c0 147.168 -197.527 167.702 -309.004 206.328c-196.549 66.9824 -370.118 228.33 -370.118 447.858c0 271.845 220.506 490.885 492.351 490.885
c247.887 0 453.236 -183.838 486.484 -422.924l-321.716 -67.9609c0 88.4961 -74.3174 162.813 -162.813 162.813c-89.9619 0 -164.279 -74.3174 -164.279 -163.791c0 -145.212 183.838 -183.837 295.802 -217.085c203.395 -58.6709 382.831 -213.661 382.831 -438.079
c0 -271.845 -243.975 -491.374 -515.33 -491.374c-249.354 0 -474.75 182.859 -511.42 422.924l321.715 68.4502c0 -89.9639 97.7861 -163.303 188.727 -163.303zM550.691 315.871l-1.4668 1.4668c89.4736 0 188.238 74.3174 188.238 163.791
c0 147.168 -197.527 167.702 -309.004 206.328c-196.549 66.9824 -370.118 228.33 -370.118 447.858c0 271.845 220.506 490.885 492.351 490.885c247.887 0 453.236 -183.838 486.484 -422.924l-321.716 -67.9609c0 88.4961 -74.3174 162.813 -162.813 162.813
c-89.9619 0 -164.279 -74.3174 -164.279 -163.791c0 -145.212 183.838 -183.837 295.802 -217.085c203.395 -58.6709 382.831 -213.661 382.831 -438.079c0 -271.845 -243.975 -491.374 -515.33 -491.374c-249.354 0 -474.75 182.859 -511.42 422.924l321.715 68.4502
c0 -89.9639 97.7861 -163.303 188.727 -163.303z" />
    <glyph glyph-name="agrave" unicode="&#xe0;" horiz-adv-x="1551" 
d="M665 2223l258 -366l-116 -89l-330 307zM40 0l735 1645l736 -1645h-351l-109 245h-552l-109 -245h-350zM627 531h296l-147 341z" />
    <glyph glyph-name="aacute" unicode="&#xe1;" horiz-adv-x="1551" 
d="M886 2223l188 -148l-329 -307l-117 89zM40 0l735 1645l736 -1645h-351l-109 245h-552l-109 -245h-350zM627 531h296l-147 341z" />
    <glyph glyph-name="acircumflex" unicode="&#xe2;" horiz-adv-x="1551" 
d="M510 1749l263 415l265 -415h-164l-101 158l-101 -158h-162zM40 0l735 1645l736 -1645h-351l-109 245h-552l-109 -245h-350zM627 531h296l-147 341z" />
    <glyph glyph-name="atilde" unicode="&#xe3;" horiz-adv-x="1551" 
d="M1167 1757l1 -0.998047c-44 -54.667 -90 -78.834 -138 -72.501s-125 28.5 -231 66.5c-112 40 -187.333 53.333 -226 40s-85 -47.666 -139 -102.999l-5 179c47.333 51.333 93.833 84.166 139.5 98.499s130.5 -4.5 254.5 -56.5c114 -48.667 189.667 -65.334 227 -50.001
s77 46 119 92zM40 0.00195312l735 1645l736 -1645h-351l-109 245h-552l-109 -245h-350zM627 531.002h296l-147 341z" />
    <glyph glyph-name="adieresis" unicode="&#xe4;" horiz-adv-x="1551" 
d="M886.001 1869c0 65.2695 54.3867 121 119.999 121c65.5879 0 121 -55.7314 121 -121c0 -66.1455 -54.8828 -119.999 -121 -119.999c-66.1445 0 -119.999 53.8564 -119.999 119.999zM40 0l735 1645l736 -1645h-351l-109 245h-552l-109 -245h-350zM627 531h296l-147 341z
M435 1869c0 65.2686 55.417 121 121 121c64.7607 0 120.001 -56.2676 120.001 -121c0 -65.6152 -54.707 -119.999 -120.001 -119.999c-66.1191 0 -121 53.8555 -121 119.999z" />
    <glyph glyph-name="aring" unicode="&#xe5;" horiz-adv-x="1544" 
d="M549 1888c0 103.672 85.0098 189 189 189c103.141 0 189 -85.8623 189 -189c0 -103.141 -85.8623 -189 -189 -189c-103.995 0 -189 85.3281 -189 189zM738 1966c-52.667 0 -79 -26.333 -79 -79c0 -52 26.333 -78 79 -78s79 26 79 78c0 52.667 -26.333 79 -79 79zM0 0
l735 1645l736 -1645h-351l-109 245h-552l-109 -245h-350zM587 531h296l-147 341z" />
    <glyph glyph-name="ae" unicode="&#xe6;" horiz-adv-x="2042" 
d="M499 248c-34.5986 -83.4014 -73.7031 -162.297 -110 -244h-349l734 1615h1228v-323h-647v-325h485v-323h-485v-325h647v-323h-972v240l-4 8h-527zM1031 541v765h-44l-355 -771z" />
    <glyph glyph-name="ccedilla" unicode="&#xe7;" horiz-adv-x="1477" 
d="M731 -3c-172.667 24 -322.997 100.67 -450.997 230.003c-160 158.667 -240 351 -240 577c0 225.333 80 418.666 240 579.999c159.333 160.667 351.666 241 576.999 241l-1 -4c249.343 0 447.209 -108.58 580 -238.999l-231 -232
c-96.667 96.667 -212.334 145 -347.001 145c-136 0 -251.333 -48.333 -346 -145c-96 -97.333 -144 -213 -144 -347c0 -134.667 48 -250.334 144 -347.001c95.333 -95.333 210.666 -143 345.999 -143c134.667 0 250.667 48 348 144l231 -230
c-74.667 -74.667 -162 -133.334 -262 -176.001c-62 -27.333 -126.667 -45.333 -194 -54c0 -202.245 -85.6611 -384.082 -187 -467.501l-82 -67.5l-197 204l30 10.5c20 7 57 41.5 111 103.5c44.4043 52.585 68.7617 132.798 75 217z" />
    <glyph glyph-name="egrave" unicode="&#xe8;" 
d="M332 2078l188 148l258 -366l-116 -89zM100 1620h972v-324h-647v-324h485v-324h-485v-324h647v-324h-972v1620z" />
    <glyph glyph-name="eacute" unicode="&#xe9;" 
d="M100 1620h972v-324h-647v-324h485v-324h-485v-324h647v-324h-972v1620zM693 2226l188 -148l-330 -307l-116 89z" />
    <glyph glyph-name="ecircumflex" unicode="&#xea;" 
d="M100 1620h972v-324h-647v-324h485v-324h-485v-324h647v-324h-972v1620zM325 1753l263 415l266 -415h-164l-102 158l-100 -158h-163z" />
    <glyph glyph-name="edieresis" unicode="&#xeb;" 
d="M238.001 1902c0 65.2695 54.3867 121 119.999 121c64.7607 0 120.001 -56.2676 120.001 -121c0 -65.6152 -54.707 -119.999 -120.001 -119.999c-66.1445 0 -119.999 53.8564 -119.999 119.999zM686 1902c0 65.8027 54.5605 121 121 121
c64.7607 0 120.001 -56.2676 120.001 -121c0 -65.6152 -54.707 -119.999 -120.001 -119.999c-66.9727 0 -121 53.3242 -121 119.999zM100 1619h972v-323h-648v-325h486v-323h-486v-325h648v-323h-972v1619z" />
    <glyph glyph-name="igrave" unicode="&#xec;" horiz-adv-x="574" 
d="M0 2078l188 148l258 -366l-116 -89zM150 0v1620h324v-1620h-324z" />
    <glyph glyph-name="iacute" unicode="&#xed;" horiz-adv-x="589" 
d="M100 0v1620h325v-1620h-325zM401 2226l188 -148l-329 -307l-117 89z" />
    <glyph glyph-name="icircumflex" unicode="&#xee;" horiz-adv-x="569" 
d="M20 1753l263 415l266 -415h-164l-102 158l-100 -158h-163zM122 0v1620h325v-1620h-325z" />
    <glyph glyph-name="idieresis" unicode="&#xef;" horiz-adv-x="690" 
d="M0 1902c0 65.2695 54.3867 121 119.999 121c65.5879 0 121 -55.7314 121 -121c0 -66.1455 -54.8828 -119.999 -121 -119.999c-66.1445 0 -119.999 53.8564 -119.999 119.999zM450.999 1902c0 64.7344 54.2158 121 119 121h0.999023
c64.7607 0 120.001 -56.2676 120.001 -121c0 -65.6152 -54.707 -119.999 -120.001 -119.999c-66.1445 0 -119.999 53.8564 -119.999 119.999zM174.998 0v1619h325v-1619h-325z" />
    <glyph glyph-name="eth" unicode="&#xf0;" horiz-adv-x="1428" 
d="M581 324.001c291.756 0 482 193.033 482 485c0 297.82 -186.706 484.999 -485 484.999h-74v-389l288 -1v-212l-288 1v-369h76zM580 1616c236 0 433.332 -79.333 591.999 -238c144 -144.667 216 -335 216 -571s-72 -426 -216 -570
c-159.333 -158 -356.666 -237 -591.999 -237h-399v693h-141v212h141v711h399z" />
    <glyph glyph-name="ntilde" unicode="&#xf1;" horiz-adv-x="1476" 
d="M1063 1807l1 -0.998047c-44 -54.667 -90 -78.834 -138 -72.501s-125 28.5 -231 66.5c-112 40 -187.167 53.333 -225.5 40s-84.833 -47.666 -139.5 -102.999l-5 179c48 51.333 94.667 84.166 140 98.499s130 -4.5 254 -56.5c114 -48.667 189.667 -65.334 227 -50.001
s77 46 119 92zM90 1646l971 -926v895h325v-1648l-972 925v-895h-324v1649z" />
    <glyph glyph-name="ograve" unicode="&#xf2;" horiz-adv-x="1718" 
d="M523 2075l188 148l258 -366l-116 -89zM858 1625c224.667 0 417.333 -80.666 578 -241.999c161.333 -160.667 242 -353.334 242 -578.001c0 -225.333 -80.667 -418 -242 -578c-159.333 -159.333 -352 -239 -578 -239s-418.667 79.667 -578 239
c-160 160 -240 352.667 -240 578s80 418 240 578c160 161.333 352.667 242 578 242zM857.999 1298c-136.667 0 -252.333 -47.998 -347 -143.998c-96 -98.667 -144 -214.334 -144 -347.001c0 -134.667 48 -250.334 144 -347.001c95.333 -95.333 211 -143 347 -143
c133.333 0 249 47.667 347 143c96 96 144 211.667 144 347c0 134 -48 249.667 -144 347c-97.333 96 -213 144 -347 144z" />
    <glyph glyph-name="oacute" unicode="&#xf3;" horiz-adv-x="1718" 
d="M924 2223l188 -148l-330 -307l-116 89zM858 1625c224.667 0 417.667 -80.666 579 -241.999c160.667 -160.667 241 -353.334 241 -578.001s-80.333 -417.334 -241 -578.001c-160.667 -159.333 -353.667 -239 -579 -239c-226 0 -418.667 79.667 -578 239
c-160 160.667 -240 353.334 -240 578.001c0 224 80 416.667 240 578s352.667 242 578 242zM858 1298c-135.333 0 -251 -47.998 -347 -143.998c-96 -98.667 -144 -214.334 -144 -347.001c0 -134.667 48 -250.334 144 -347.001c96 -95.333 211.667 -143 347 -143
c133.333 0 249 47.667 347 143c96 96 144 211.667 144 347c0 134 -48 249.667 -144 347c-97.333 96 -213 144 -347 144z" />
    <glyph glyph-name="ocircumflex" unicode="&#xf4;" horiz-adv-x="1718" 
d="M591 1750l263 415l265 -415h-164l-101 158l-101 -158h-162zM858 1625c224.667 0 417.333 -80.667 578 -242c161.333 -160.667 242 -353.334 242 -578.001c0 -225.333 -80.667 -418 -242 -578c-159.333 -159.333 -352 -239 -578 -239s-418.667 79.667 -578 239
c-160 160.667 -240 353.334 -240 578.001c0 224 80 416.667 240 578s352.667 242 578 242zM857.999 1298c-135.333 0 -251 -47.998 -347 -143.998c-96 -98.667 -144 -214.334 -144 -347.001c0 -134.667 48 -250.334 144 -347.001c96 -95.333 211.667 -143 347 -143
c133.333 0 249 47.667 347 143c96 96 144 211.667 144 347c0 134 -48 249.667 -144 347c-97.333 96 -213 144 -347 144z" />
    <glyph glyph-name="otilde" unicode="&#xf5;" horiz-adv-x="1717" 
d="M1235 1808l1.00098 -0.998047c-44 -54.667 -90.167 -78.834 -138.5 -72.501s-125.5 28.5 -231.5 66.5c-112.667 40 -188.167 53.333 -226.5 40s-84.5 -47.666 -138.5 -102.999l-5 179c47.333 51.333 93.666 84.166 138.999 98.499s130.333 -4.5 255 -56.5
c114 -48.667 189.667 -65.334 227 -50.001s77.333 46 120 92zM858.001 1624c225.333 0 418 -80.333 578 -241c160.667 -160.667 241 -353.667 241 -579c0 -226 -80.333 -418.333 -241 -577c-159.333 -159.333 -352 -239 -578 -239s-418.667 79.667 -578 239
c-160 158.667 -240 351 -240 577c0 224.667 80 417.667 240 579c159.333 160.667 352 241 578 241zM858.001 1298c-136 0 -251.668 -48.333 -347.001 -145c-96 -96 -144 -211.333 -144 -346c0 -136.667 48 -252.334 144 -347.001c94.667 -96 210.334 -144 347.001 -144
c134.667 0 250 48 346 144c96.667 94.667 145 210.334 145 347.001c0 134.667 -48.333 250 -145 346c-96.667 96.667 -212 145 -346 145z" />
    <glyph glyph-name="odieresis" unicode="&#xf6;" horiz-adv-x="1717" 
d="M509 1899c0 65.8027 54.5605 121 121 121c64.7607 0 120.001 -56.2676 120.001 -121c0 -65.6152 -54.707 -119.999 -120.001 -119.999c-66.9727 0 -121 53.3242 -121 119.999zM960.001 1899c0 65.2695 54.3867 121 119.999 121c64.7344 0 121 -56.2676 121 -121
c0 -65.6162 -55.7295 -119.999 -121 -119.999c-66.1445 0 -119.999 53.8564 -119.999 119.999zM857 1624c225.333 0 418.333 -80.333 579 -241s241 -353.667 241 -579c0 -226 -80.333 -418.333 -241 -577c-160.667 -159.333 -353.667 -239 -579 -239
c-226.667 0 -419 79.667 -577 239c-160 158.667 -240 351 -240 577c0 224.667 80 417.667 240 579c158.667 160.667 351 241 577 241zM857 1298c-134.667 0 -250.333 -48.334 -347 -145.001c-95.333 -96.667 -143 -212 -143 -346c0 -136 47.667 -251.667 143 -347
c96 -96 211.667 -144 347 -144c134.667 0 250 48 346 144c97.333 94.667 146 210.334 146 347.001c0 134 -48.667 249.333 -146 346c-96.667 96.667 -212 145 -346 145z" />
    <glyph glyph-name="divide" unicode="&#xf7;" horiz-adv-x="1992" 
d="M217 741l262 -285c22.3008 182.699 44.6387 365.361 67 548l-167 -197l-118 197l-25 -205h-100l62 505l202 -331l284 331c-43.9268 -360.073 -88.1318 -719.868 -133 -1079l-263 284l-33 -275h-100zM845 961h88l-31 104zM794 875l-1 -4l-42 -72h-106l287 504l165 -504
c33.834 -114.166 70.0566 -225.943 105 -339l150 272h107l-286 -507l-162 507l-26 74c-7.34473 22.9883 -14.5977 46.0684 -22 69h-169zM1133 798c14.7402 106.593 28.5459 214.121 42.001 322l21 173h161c106.239 0 169.003 -73.9785 155 -179
c-9.38477 -67.0303 -58.7471 -121.952 -121.001 -144l90 -172h-121l-103 194l-24 -194h-100zM1266 1055l72 -1.00098c53.1006 0 98.4053 75.8398 58 121.001c-12 13.333 -31.333 20 -58 20h-55c-5.30469 -47.0283 -10.9902 -93.6768 -17 -140zM1763 1148
c1.30371 29.9775 -17.8271 51 -44.999 51c-44.5713 0 -78.5215 -62.3584 -39 -92c23.7881 -17.8418 30.1797 -19.2959 56.999 -26.001c53.5635 -19.4766 110.322 -58.2803 102.999 -136.999c-10.0781 -78.1084 -84.9375 -149 -169 -149c-80.918 0 -143.844 64.9561 -133 149
h101c-5.22559 -28.7363 17.0127 -51 43.999 -51c28.1064 0 52.3027 25.1191 56 51c5.11133 39.6045 -26.8662 40.9375 -53.001 54l0.00195312 4c-61.0322 20.3467 -133.697 56.1279 -122.999 146c8.71191 77.1543 84.3018 148 169 148c79.2422 0 141.463 -64.1943 132 -148
h-100zM688.003 733.999h297l-12 -99h-198l-13 -101h149l-12 -99h-149l-12 -100h199l-12 -99h-298zM70.0029 1536h1852v-1460h-1852v1460zM1890 1503h-1787v-1395h1787v1395z" />
    <glyph glyph-name="oslash" unicode="&#xf8;" horiz-adv-x="1717" 
d="M1091 1818l253 0.000976562l-100 -290c70 -39.333 134 -88 192 -146c160.667 -160.667 241 -353.334 241 -578.001c0 -226.667 -80.333 -419.334 -241 -578.001c-159.333 -159.333 -352 -239 -578 -239c-46 0 -92 3.66699 -138 11l-69 -203h-254l95 275
c-77.333 39.333 -148 91.333 -212 156c-160 158.667 -240 351.334 -240 578.001c0 224 80 416.667 240 578c159.333 160.667 352 241 578 241c55.333 0 109 -5 161 -15zM911 1294c-17.333 2 -35 3.00098 -53 3.00098c-136 0 -251.667 -48.333 -347 -145
c-96 -96 -144 -211.333 -144 -346c0 -136.667 48 -252.334 144 -347.001c27.333 -28 57 -52 89 -72zM829 316.002c6.66699 -0.666992 16.333 -1 29 -1c134.667 0 250 48 346 144c96.667 94.667 145 210.334 145 347.001c0 134.667 -48.333 250 -145 346
c-25.333 25.333 -48 44.666 -68 57.999z" />
    <glyph glyph-name="ugrave" unicode="&#xf9;" horiz-adv-x="1483" 
d="M464 2074l188 148l258 -366l-117 -89zM741 316c175.455 0 326 147.142 326 324v976l326.002 -0.000976562v-977c0 -181.333 -63.667 -335 -191 -461c-126 -126.667 -279.333 -190 -460 -190s-334.334 63.333 -461.001 190c-127.333 126 -191 279.667 -191 461v977h327
v-976c0 -177.207 146.798 -323.999 323.999 -323.999z" />
    <glyph glyph-name="uacute" unicode="&#xfa;" horiz-adv-x="1483" 
d="M824 2222l188 -148l-330 -307l-117 89zM741 316c175.455 0 326 147.142 326 324v976l326.002 -0.000976562v-977c0 -181.333 -63.667 -335 -191 -461c-126 -126.667 -279.333 -190 -460 -190s-334.334 63.333 -461.001 190c-127.333 126 -191 279.667 -191 461v977h327
v-976c0 -177.207 146.798 -323.999 323.999 -323.999z" />
    <glyph glyph-name="ucircumflex" unicode="&#xfb;" horiz-adv-x="1483" 
d="M475 1749l263 415l266 -415h-164l-102 158l-100 -158h-163zM741 316.001c175.455 0 326 147.861 326 323.999v976l326.002 0.000976562v-977c0 -181.333 -63.667 -335 -191 -461c-126 -126.667 -279.333 -190 -460 -190s-334.334 63.333 -461.001 190
c-127.333 126 -191 279.667 -191 461v977h327v-976c0 -176.481 146.797 -324 323.999 -324z" />
    <glyph glyph-name="udieresis" unicode="&#xfc;" horiz-adv-x="1484" 
d="M742 316c175.455 0 326 149.304 326 324v975h326v-976c0 -180 -63.667 -333.667 -191 -461c-128 -126.667 -281.333 -190 -460 -190c-180.667 0 -334.667 63.333 -462 190c-127.333 127.333 -191 281 -191 461v976h326v-975c0 -175.757 148.85 -324 326 -324zM849 1898
c0 65.2148 54.7549 120.088 119.999 121c65.5879 0 121 -55.7314 121 -121c0 -66.1455 -54.8828 -119.999 -121 -119.999c-66.1445 0 -119.999 53.8564 -119.999 119.999zM399.999 1898c0 65.2686 55.417 121 121 121c64.7607 0 120.001 -56.2676 120.001 -121
c0 -65.6152 -54.707 -119.999 -120.001 -119.999c-66.1191 0 -121 53.8555 -121 119.999z" />
    <glyph glyph-name="yacute" unicode="&#xfd;" horiz-adv-x="1375" 
d="M814 2226l188 -148l-330 -307l-117 89zM40 1620h368l279 -514l279 514h369l-486 -894v-726h-324v726z" />
    <glyph glyph-name="thorn" unicode="&#xfe;" horiz-adv-x="1230" 
d="M90 1612h323v-277h247c146.667 0 271.667 -51.667 375 -155s155 -228 155 -374c0 -145.333 -51.667 -270 -155 -374c-103.333 -103.333 -228.333 -155 -375 -155h-247v-277h-323v1612zM892 806c0 126.958 -105.046 232 -232 232h-247v-463h247
c126.426 0 232 103.436 232 231z" />
    <glyph glyph-name="ydieresis" unicode="&#xff;" horiz-adv-x="1375" 
d="M40 1620h368l279 -514l279 514h369l-486 -894v-726h-324v726zM792 1898c0 65.5107 54.1465 120.542 119.999 121c64.7607 0 120.001 -56.2676 120.001 -121c0 -65.6152 -54.707 -119.999 -120.001 -119.999c-66.1445 0 -119.999 53.8564 -119.999 119.999zM343 1898
c0 65.2695 54.3867 121 119.999 121c65.5879 0 121 -55.7314 121 -121c0 -66.1455 -54.8828 -119.999 -121 -119.999c-66.1445 0 -119.999 53.8564 -119.999 119.999z" />
    <glyph glyph-name="Ncaron" unicode="&#x147;" horiz-adv-x="1496" 
d="M100 1646l971 -926v895h325v-1648l-972 925v-895h-324v1649zM484 2123h162l101 -158l101 158h164l-265 -415z" />
    <glyph glyph-name="OE" unicode="&#x152;" horiz-adv-x="2350" 
d="M1338 1614l971.999 -1.00098v-323h-648v-325h486v-323h-486v-325h648v-322h-972v148c-138.667 -102.667 -298.667 -154 -480 -154c-226 0.666992 -418.667 80 -578 238c-160 158.667 -240 351.334 -240 578.001c0 224.667 80 417.667 240 579
c160.667 160.667 353.334 241 578.001 241c181.333 0 341.333 -52.333 480 -157v146zM857.999 1297c-136 0 -251.668 -48.3311 -347.001 -144.998c-96 -98.667 -144 -214.334 -144 -347.001c0 -134.667 48 -250.334 144 -347.001c94.667 -96 210.334 -144 347.001 -144
c134 0 249.667 48 347 144c69.333 69.333 113.666 149.333 132.999 240v213c-19.333 90.667 -63.666 171 -132.999 241c-98 96.667 -213.667 145 -347 145z" />
    <glyph glyph-name="oe" unicode="&#x153;" horiz-adv-x="2350" 
d="M1338 1614l971.999 -1.00098v-323h-648v-325h486v-323h-486v-325h648v-322h-972v148c-138.667 -102.667 -298.667 -154 -480 -154c-226 0.666992 -418.667 80 -578 238c-160 158.667 -240 351.334 -240 578.001c0 224.667 80 417.667 240 579
c160.667 160.667 353.334 241 578.001 241c181.333 0 341.333 -52.333 480 -157v146zM857.999 1297c-136 0 -251.668 -48.3311 -347.001 -144.998c-96 -98.667 -144 -214.334 -144 -347.001c0 -134.667 48 -250.334 144 -347.001c94.667 -96 210.334 -144 347.001 -144
c134 0 249.667 48 347 144c69.333 69.333 113.666 149.333 132.999 240v213c-19.333 90.667 -63.666 171 -132.999 241c-98 96.667 -213.667 145 -347 145z" />
    <glyph glyph-name="Scaron" unicode="&#x160;" horiz-adv-x="1065" 
d="M550.691 315.871l-1.4668 1.4668c89.4736 0 188.238 74.3174 188.238 163.791c0 147.168 -197.527 167.702 -309.004 206.328c-196.549 66.9824 -370.118 228.33 -370.118 447.858c0 271.845 220.506 490.885 492.351 490.885
c247.887 0 453.236 -183.838 486.484 -422.924l-321.716 -67.9609c0 88.4961 -74.3174 162.813 -162.813 162.813c-89.9619 0 -164.279 -74.3174 -164.279 -163.791c0 -145.212 183.838 -183.837 295.802 -217.085c203.395 -58.6709 382.831 -213.661 382.831 -438.079
c0 -271.845 -243.975 -491.374 -515.33 -491.374c-249.354 0 -474.75 182.859 -511.42 422.924l321.715 68.4502c0 -89.9639 97.7861 -163.303 188.727 -163.303zM268 2158h163l101 -158l101 158h164l-265 -415z" />
    <glyph glyph-name="scaron" unicode="&#x161;" horiz-adv-x="1065" 
d="M550.691 315.871l-1.4668 1.4668c89.4736 0 188.238 74.3174 188.238 163.791c0 147.168 -197.527 167.702 -309.004 206.328c-196.549 66.9824 -370.118 228.33 -370.118 447.858c0 271.845 220.506 490.885 492.351 490.885
c247.887 0 453.236 -183.838 486.484 -422.924l-321.716 -67.9609c0 88.4961 -74.3174 162.813 -162.813 162.813c-89.9619 0 -164.279 -74.3174 -164.279 -163.791c0 -145.212 183.838 -183.837 295.802 -217.085c203.395 -58.6709 382.831 -213.661 382.831 -438.079
c0 -271.845 -243.975 -491.374 -515.33 -491.374c-249.354 0 -474.75 182.859 -511.42 422.924l321.715 68.4502c0 -89.9639 97.7861 -163.303 188.727 -163.303zM268 2158h163l101 -158l101 158h164l-265 -415z" />
    <glyph glyph-name="Zcaron" unicode="&#x17d;" horiz-adv-x="1214" 
d="M343 2157h162l101 -158l101 158h164l-265 -415zM40 1616h1134l-620 -1296h620v-322h-1134l620 1295h-620v323z" />
    <glyph glyph-name="zcaron" unicode="&#x17e;" horiz-adv-x="1214" 
d="M343 2157h162l101 -158l101 158h164l-265 -415zM40 1616h1134l-620 -1296h620v-322h-1134l620 1295h-620v323z" />
    <glyph glyph-name="endash" unicode="&#x2013;" horiz-adv-x="1040" 
d="M70 544v283h900v-283h-900z" />
    <glyph glyph-name="emdash" unicode="&#x2014;" horiz-adv-x="1700" 
d="M70 544v283h1560v-283h-1560z" />
    <glyph glyph-name="uni2015" unicode="&#x2015;" horiz-adv-x="2030" 
d="M70 544v283h1890v-283h-1890z" />
    <glyph glyph-name="quoteleft" unicode="&#x2018;" horiz-adv-x="593" 
d="M513 1283c0 -117.383 -96.9805 -215 -215 -215l0.999023 -1c-116.214 0 -219.001 103.816 -219.001 220c0 126.003 45.9951 209.697 110.5 282c30.333 34 75.833 62 136.5 84c32.3721 9.71191 134.212 -5.79102 146 -22c8.66699 -12.667 -10.166 -31.5 -56.499 -56.5
s-63.166 -58.833 -50.499 -101.5c77.4404 -25.8135 147 -89.8604 147 -190zM368 1623z" />
    <glyph glyph-name="quoteright" unicode="&#x2019;" horiz-adv-x="593" 
d="M79.998 1437c0 117.383 96.9805 215 215 215l-0.999023 1c116.214 0 219.001 -103.816 219.001 -220c0 -126.003 -45.9951 -209.697 -110.5 -282c-30.333 -34 -75.833 -62 -136.5 -84c-32.3721 -9.71191 -134.212 5.79102 -146 22
c-8.66699 12.667 10.166 31.5 56.499 56.5s63.166 58.833 50.499 101.5c-77.4404 25.8135 -147 89.8604 -147 190zM224.998 1097z" />
    <glyph glyph-name="quotesinglbase" unicode="&#x201a;" horiz-adv-x="593" 
d="M79.998 179c0 117.383 96.9805 215 215 215l-0.999023 1c116.214 0 219.001 -103.816 219.001 -220c0 -126.003 -45.9951 -209.697 -110.5 -282c-30.333 -34 -75.833 -62 -136.5 -84c-32.3721 -9.71191 -134.212 5.79102 -146 22
c-8.66699 12.667 10.166 31.5 56.499 56.5s63.166 58.833 50.499 101.5c-77.4404 25.8135 -147 89.8604 -147 190zM224.998 -160z" />
    <glyph glyph-name="quotereversed" unicode="&#x201b;" horiz-adv-x="593" 
d="M513 1437c0 117.383 -96.9805 215 -215 215l0.999023 1c-116.214 0 -219.001 -103.816 -219.001 -220c0 -126.003 45.9951 -209.697 110.5 -282c30.333 -34 75.833 -62 136.5 -84c32.3721 -9.71191 134.212 5.79102 146 22c8.66699 12.667 -10.166 31.5 -56.499 56.5
s-63.166 58.833 -50.499 101.5c77.4404 25.8135 147 89.8604 147 190zM368 1097z" />
    <glyph glyph-name="quotedblleft" unicode="&#x201c;" horiz-adv-x="1113" 
d="M1033 1283c0 -117.383 -96.9805 -215 -215 -215l0.999023 -1c-116.214 0 -219.001 103.816 -219.001 220c0 126.003 45.9951 209.697 110.5 282c30.333 34 75.833 62 136.5 84c32.3721 9.71191 134.212 -5.79102 146 -22c8.66699 -12.667 -10.166 -31.5 -56.499 -56.5
s-63.166 -58.833 -50.499 -101.5c77.4404 -25.8135 147 -89.8604 147 -190zM513 1283c0 -117.383 -96.9805 -215 -215 -215l0.999023 -1c-116.214 0 -219.001 103.816 -219.001 220c0 126.003 45.9951 209.697 110.5 282c30.333 34 75.833 62 136.5 84
c32.3721 9.71191 134.212 -5.79102 146 -22c8.66699 -12.667 -10.166 -31.5 -56.499 -56.5s-63.166 -58.833 -50.499 -101.5c77.4404 -25.8135 147 -89.8604 147 -190zM368 1623z" />
    <glyph glyph-name="quotedblright" unicode="&#x201d;" horiz-adv-x="1113" 
d="M79.998 1437c0 117.383 96.9805 215 215 215l-0.999023 1c116.214 0 219.001 -103.816 219.001 -220c0 -126.003 -45.9951 -209.697 -110.5 -282c-30.333 -34 -75.833 -62 -136.5 -84c-32.3721 -9.71191 -134.212 5.79102 -146 22
c-8.66699 12.667 10.166 31.5 56.499 56.5s63.166 58.833 50.499 101.5c-77.4404 25.8135 -147 89.8604 -147 190zM599.998 1437c0 117.383 96.9805 215 215 215l-0.999023 1c116.214 0 219.001 -103.816 219.001 -220c0 -126.003 -45.9951 -209.697 -110.5 -282
c-30.333 -34 -75.833 -62 -136.5 -84c-32.3721 -9.71191 -134.212 5.79102 -146 22c-8.66699 12.667 10.166 31.5 56.499 56.5s63.166 58.833 50.499 101.5c-77.4404 25.8135 -147 89.8604 -147 190zM744.998 1097z" />
    <glyph glyph-name="quotedblbase" unicode="&#x201e;" horiz-adv-x="1113" 
d="M599.998 179c0 117.383 96.9805 215 215 215l-0.999023 1c116.214 0 219.001 -103.816 219.001 -220c0 -126.003 -45.9951 -209.697 -110.5 -282c-30.333 -34 -75.833 -62 -136.5 -84c-32.3721 -9.71191 -134.212 5.79102 -146 22
c-8.66699 12.667 10.166 31.5 56.499 56.5s63.166 58.833 50.499 101.5c-77.4404 25.8135 -147 89.8604 -147 190zM79.998 179c0 117.383 96.9805 215 215 215l-0.999023 1c116.214 0 219.001 -103.816 219.001 -220c0 -126.003 -45.9951 -209.697 -110.5 -282
c-30.333 -34 -75.833 -62 -136.5 -84c-32.3721 -9.71191 -134.212 5.79102 -146 22c-8.66699 12.667 10.166 31.5 56.499 56.5s63.166 58.833 50.499 101.5c-77.4404 25.8135 -147 89.8604 -147 190zM224.998 -160z" />
    <glyph glyph-name="ellipsis" unicode="&#x2026;" horiz-adv-x="2514" 
d="M2057 -51c-113.754 0 -206.999 92.2227 -206.999 206c0 112.901 93.7812 207.001 206.999 207.001c112.37 0 207.001 -94.6338 207.001 -207.001c0 -113.252 -94.0986 -206 -207.001 -206zM1257 -51c-113.754 0 -206.999 92.2227 -206.999 206
c0 112.901 93.7812 207.001 206.999 207.001c112.37 0 207.001 -94.6338 207.001 -207.001c0 -113.252 -94.0986 -206 -207.001 -206zM456.999 -51c-113.754 0 -206.999 92.2227 -206.999 206c0 112.901 93.7812 207.001 206.999 207.001
c112.37 0 207.001 -94.6338 207.001 -207.001c0 -113.252 -94.0986 -206 -207.001 -206z" />
    <glyph glyph-name="perthousand" unicode="&#x2030;" horiz-adv-x="2308" 
d="M493.999 1290c1.1875 64.1172 -59.6572 121.723 -118.999 123c-27.333 0 -55 -11 -83 -33c-53.3809 -41.9424 -52.1719 -136.609 -2 -180c24.667 -21.333 52.667 -32 84 -32c64.9941 0 117.564 56.2451 119.999 122zM1533 362c0 198.762 165.049 363 363 363
c196.146 0 362.001 -165.849 362.001 -363c0 -196.595 -164.604 -361.999 -362 -361.999c-199.213 0 -363.001 163.805 -363.001 361.999zM1895 532c-113.333 0 -170 -56.667 -170 -170c0 -112.667 56.667 -169 170 -169c112.667 0 169 56.333 169 169
c0 113.333 -56.333 170 -169 170zM1069 1613h240l-1018 -1613h-241zM737 362c0 198.506 165.395 363 363.001 363c98.667 0 183.667 -36 255 -108c71.333 -70 107 -155 107 -255c0 -196.595 -164.604 -361.999 -362 -361.999c-199.213 0 -363.001 163.805 -363.001 361.999z
M1099 531c-113.333 0 -170 -56.333 -170 -169s56.667 -169 170 -169c112.667 0 169 56.333 169 169s-56.333 169 -169 169zM50 1289c0 177.187 148.861 323.001 324.001 323.001c173.077 0 322.999 -149.929 322.999 -323c0 -174.155 -147.605 -324 -323 -324
c-177.464 0 -324 145.729 -324 323.999z" />
    <glyph glyph-name="Euro" unicode="&#x20ac;" horiz-adv-x="1598" 
d="M1548 226.998c-132.146 -130.954 -327.697 -237.999 -578.999 -237.999c-226.667 0.666992 -419.334 80 -578.001 238c-109.333 108.667 -181.333 233.334 -216 374.001h-125l16.999 161.998h85c-0.666992 9.33301 -1 23.666 -1 42.999c0 25.333 0.333008 44 1 56h-102
l17 162h111c36 134 107 254 213 360c159.333 160.667 352 241 578 241l-1 -4c248.789 0 445.955 -110.708 578.999 -239l-231 -231c-98 96 -213.333 144 -346 144c-136.667 0 -252.334 -48 -347.001 -144c-39.333 -39.333 -70.333 -81.666 -93 -126.999h706l-17 -162h-737
c-2 -18 -3 -37 -3 -57c0 -9.33301 0.666992 -23.333 2 -42h728l-17 -162h-670c24.667 -54 58.334 -101.667 101.001 -143c94.667 -96 210.334 -144 347.001 -144c134.667 0 250.334 48.333 347.001 145z" />
  </font>
</defs>
</svg>
